<svg id="Gradient" viewBox="0 0 48 48" xmlns="http://www.w3.org/2000/svg" xmlns:xlink="http://www.w3.org/1999/xlink"><radialGradient id="radial-gradient" cx="24.072" cy="13.359" gradientUnits="userSpaceOnUse" r="25.433"><stop offset=".0056" stop-color="#f16b1f"/><stop offset=".3476" stop-color="#f0681e"/><stop offset=".5681" stop-color="#ed5f1d"/><stop offset=".7541" stop-color="#e7501b"/><stop offset=".9201" stop-color="#e03c19"/><stop offset="1" stop-color="#dc2f18"/></radialGradient><linearGradient id="linear-gradient" gradientUnits="userSpaceOnUse" x1="24.081" x2="24.081" y1="37.194" y2="33.91"><stop offset="0" stop-color="#8b3a0e"/><stop offset="1" stop-color="#472315"/></linearGradient><linearGradient id="linear-gradient-2" gradientUnits="userSpaceOnUse" x1="31.1" x2="31.1" y1="24.714" y2="30.191"><stop offset=".0056" stop-color="#3c466e"/><stop offset="1" stop-color="#252949"/></linearGradient><linearGradient id="linear-gradient-3" x1="16.936" x2="16.936" xlink:href="#linear-gradient-2"/><path d="m42 24c0 9.9405-8.0594 18-17.9999 18s-18.0001-8.0595-18.0001-18 8.0595-18 18-18 17.9999 8.0595 17.9999 18" fill="url(#radial-gradient)"/><path d="m30.4008 35.6227c-.8227-.5471-2.9691-1.713-6.3203-1.713s-5.4976 1.1659-6.3203 1.713c-.2389.1588-.3799.426-.3799.7129 0 .4739.3841.858.858.858h11.6846c.4738 0 .858-.3841.858-.858 0-.2869-.1411-.554-.3799-.7129z" fill="url(#linear-gradient)"/><path d="m28.642 27.6048c0-1.628 1.0992-2.9494 2.4578-2.9494s2.4578 1.3214 2.4578 2.9494-1.0992 2.9493-2.4578 2.9493-2.4578-1.3213-2.4578-2.9493z" fill="url(#linear-gradient-2)"/><path d="m14.4786 27.6048c0-1.628 1.0992-2.9494 2.4578-2.9494s2.4578 1.3214 2.4578 2.9494-1.0992 2.9493-2.4578 2.9493-2.4578-1.3213-2.4578-2.9493z" fill="url(#linear-gradient-3)"/><g fill="#c64200"><path d="m28.1794 22.2529c.1032.5657.2485 1.6443.4016 2.1763.015.0621.0561.1314.0038.0492-.0471-.0657-.1082-.1335-.1865-.1922-.0217-.0167-.061-.0405-.0509-.035l-.006-.0054c-.0122-.0059-.0216-.005-.0106-.003.0195.0144.0624.0223.1037.0295 1.4458.1087 2.9162-.4045 4.3743-.6994.9134-.2081 1.8272-.4359 2.8162-.5538.2905-.0346.5541.1728.5888.4633.0291.2426-.1111.4658-.3263.5538-.8252.3699-1.6815.7762-2.5558 1.1425-1.6796.6425-4.3543 1.8986-6.1252.9877-.188-.0949-.3941-.2982-.4983-.4672-.5727-1.0664-.5697-2.1332-.6233-3.285.0216-1.2946 1.8814-1.428 2.0946-.1612z"/><path d="m21.9103 22.4142c-.0535 1.1526-.051 2.2178-.6231 3.285-.0668.0925-.1184.1718-.2262.2705-1.0272.8461-2.5344.4825-3.6603.193-1.8612-.5204-3.5776-1.3525-5.293-2.1265-.2766-.1131-.4069-.4347-.2837-.7077.0971-.2166.3223-.3358.5461-.3093.9891.118 1.9028.3457 2.8162.5538 1.4788.2892 2.9798.845 4.444.6832.0209-.0048.0348-.0097.034-.0133.011-.002.0016-.0029-.0106.003-.0179.0136-.0965.0665-.1267.0991-.0688.0693-.0713.0716-.1166.1335-.0523.0822-.0112.013.0037-.0492.1539-.5339.301-1.6237.4037-2.1891.2314-1.2651 2.0768-1.1029 2.0924.174z"/></g></svg>