<?xml version="1.0" encoding="iso-8859-1"?>
<!-- Generator: Adobe Illustrator 19.0.0, SVG Export Plug-In . SVG Version: 6.00 Build 0)  -->
<svg version="1.1" id="Layer_1" xmlns="http://www.w3.org/2000/svg" xmlns:xlink="http://www.w3.org/1999/xlink" x="0px" y="0px"
	 viewBox="0 0 511.999 511.999" style="enable-background:new 0 0 511.999 511.999;" xml:space="preserve">
<path style="fill:#454854;" d="M495.972,59.216c-7.692,0-169.427,0-181.487,0v38.238h-90.316V59.216c-5.795,0-201.907,0-208.072,0
	c-8.853,0-16.027,7.177-16.027,16.026c0,342.817-0.404,321.38,0.72,324.999c2.03,6.523,8.115,11.259,15.307,11.259
	c166.675,0,171.492-0.459,176.069,1.093c16.432,2.797,29.879,16.97,29.879,41.706c0,17.32,16.672,31.361,33.99,31.361
	c17.058,0,33.989-13.733,33.989-31.555c0-25.446,13.673-42.605,42.801-42.605c4.521,0,155.459,0,163.148,0
	c8.86,0,16.027-7.183,16.027-16.023c0-9.975,0-312.711,0-320.234C511.999,66.399,504.83,59.216,495.972,59.216z"/>
<path style="fill:#31343F;" d="M22.327,395.476c0-343.123-0.319-321.647,0.721-325.001c2.03-6.523,8.114-11.259,15.307-11.259
	H16.097c-8.853,0-16.027,7.177-16.027,16.026c0,342.817-0.404,321.38,0.72,324.999c2.03,6.523,8.115,11.259,15.307,11.259h22.258
	C29.477,411.5,22.327,404.296,22.327,395.476z"/>
<path style="fill:#F9C66B;" d="M449.379,26.342c-12.252,0-119.303,0-132.224,0c-34.372,0-62.235,27.866-62.235,62.233
	c0,16.305,0,303.454,0,313.627c3.957-0.109,7.673-4.606,9.604-8.055l0.009,0.013c11.028-17.436,30.467-29.024,52.622-29.024
	c6.381,0,128.192,0,132.224,0c7.174,0,12.99-5.815,12.99-12.987c0-9.645,0-306.06,0-312.816
	C462.369,32.157,456.553,26.342,449.379,26.342z"/>
<path style="fill:#F7BD48;" d="M248.368,397.434c1.913,2.396,4.6,4.836,7.668,4.767c0-9.973,0-299.397,0-313.627
	c0-34.367-27.863-62.233-62.235-62.233c-16.653,0-118.84,0-132.225,0c-7.173,0-12.99,5.815-12.99,12.99
	c0,12.938,0,299.972,0,312.816c0,7.173,5.817,12.987,12.99,12.987c4.009,0,125.87,0,132.225,0
	C217.319,365.135,237.785,378.185,248.368,397.434z"/>
<path style="fill:#E29E24;" d="M70.844,352.147c0-9.645,0-306.06,0-312.816c0-7.175,5.817-12.99,12.99-12.99H61.576
	c-7.173,0-12.99,5.815-12.99,12.99c0,12.938,0,299.972,0,312.816c0,7.173,5.817,12.987,12.99,12.987h22.258
	C76.661,365.135,70.844,359.32,70.844,352.147z"/>
<path style="fill:#E02B2B;" d="M361.785,26.342v121.095c0,14.303,6.283,9.624,8.553,7.466l20.791-21.354l20.791,21.354
	c2.271,2.158,8.553,6.837,8.553-7.466c0-13.859,0-106.981,0-121.095C420.472,26.342,361.785,26.342,361.785,26.342z"/>
<path style="fill:#C42020;" d="M391.127,26.342h-29.342v121.095c0,14.303,6.283,9.624,8.553,7.466l20.791-21.354V26.342H391.127z"/>
<g>
	<path style="fill:#DB742E;" d="M332.7,118.452h-29.048c-4.611,0-8.347-3.736-8.347-8.347c0-4.611,3.736-8.347,8.347-8.347H332.7
		c4.61,0,8.347,3.736,8.347,8.347C341.047,114.717,337.31,118.452,332.7,118.452z"/>
	<path style="fill:#DB742E;" d="M332.7,155.807h-29.048c-4.611,0-8.347-3.736-8.347-8.347c0-4.611,3.736-8.347,8.347-8.347H332.7
		c4.61,0,8.347,3.736,8.347,8.347C341.047,152.071,337.31,155.807,332.7,155.807z"/>
	<path style="fill:#DB742E;" d="M416.167,193.16H303.654c-4.611,0-8.347-3.736-8.347-8.347c0-4.61,3.736-8.347,8.347-8.347h112.514
		c4.61,0,8.347,3.737,8.347,8.347C424.514,189.424,420.777,193.16,416.167,193.16z"/>
	<path style="fill:#DB742E;" d="M416.167,230.516H303.654c-4.611,0-8.347-3.737-8.347-8.347c0-4.611,3.736-8.347,8.347-8.347
		h112.514c4.61,0,8.347,3.736,8.347,8.347C424.514,226.779,420.777,230.516,416.167,230.516z"/>
	<path style="fill:#DB742E;" d="M416.167,267.869H303.654c-4.611,0-8.347-3.736-8.347-8.347c0-4.611,3.736-8.347,8.347-8.347
		h112.514c4.61,0,8.347,3.736,8.347,8.347C424.514,264.133,420.777,267.869,416.167,267.869z"/>
	<path style="fill:#DB742E;" d="M416.167,305.223H303.654c-4.611,0-8.347-3.736-8.347-8.347s3.736-8.347,8.347-8.347h112.514
		c4.61,0,8.347,3.736,8.347,8.347C424.514,301.486,420.777,305.223,416.167,305.223z"/>
	<path style="fill:#DB742E;" d="M207.456,118.452H94.941c-4.611,0-8.347-3.736-8.347-8.347c0-4.611,3.736-8.347,8.347-8.347h112.516
		c4.611,0,8.347,3.736,8.347,8.347C215.802,114.717,212.066,118.452,207.456,118.452z"/>
	<path style="fill:#DB742E;" d="M207.456,155.807H94.941c-4.611,0-8.347-3.736-8.347-8.347c0-4.611,3.736-8.347,8.347-8.347h112.516
		c4.611,0,8.347,3.736,8.347,8.347C215.802,152.071,212.066,155.807,207.456,155.807z"/>
	<path style="fill:#DB742E;" d="M207.456,193.16H94.941c-4.611,0-8.347-3.736-8.347-8.347c0-4.61,3.736-8.347,8.347-8.347h112.516
		c4.611,0,8.347,3.737,8.347,8.347C215.802,189.424,212.066,193.16,207.456,193.16z"/>
	<path style="fill:#DB742E;" d="M207.456,230.516H94.941c-4.611,0-8.347-3.737-8.347-8.347c0-4.611,3.736-8.347,8.347-8.347h112.516
		c4.611,0,8.347,3.736,8.347,8.347C215.802,226.779,212.066,230.516,207.456,230.516z"/>
	<path style="fill:#DB742E;" d="M207.456,267.869H94.941c-4.611,0-8.347-3.736-8.347-8.347c0-4.611,3.736-8.347,8.347-8.347h112.516
		c4.611,0,8.347,3.736,8.347,8.347C215.802,264.133,212.066,267.869,207.456,267.869z"/>
	<path style="fill:#DB742E;" d="M207.456,305.223H94.941c-4.611,0-8.347-3.736-8.347-8.347s3.736-8.347,8.347-8.347h112.516
		c4.611,0,8.347,3.736,8.347,8.347C215.802,301.486,212.066,305.223,207.456,305.223z"/>
</g>
<g>
</g>
<g>
</g>
<g>
</g>
<g>
</g>
<g>
</g>
<g>
</g>
<g>
</g>
<g>
</g>
<g>
</g>
<g>
</g>
<g>
</g>
<g>
</g>
<g>
</g>
<g>
</g>
<g>
</g>
</svg>
