<?xml version="1.0" encoding="iso-8859-1"?>
<!-- Generator: Adobe Illustrator 19.0.0, SVG Export Plug-In . SVG Version: 6.00 Build 0)  -->
<svg version="1.1" id="Capa_1" xmlns="http://www.w3.org/2000/svg" xmlns:xlink="http://www.w3.org/1999/xlink" x="0px" y="0px"
	 viewBox="0 0 512 512" style="enable-background:new 0 0 512 512;" xml:space="preserve">
<linearGradient id="SVGID_1_" gradientUnits="userSpaceOnUse" x1="256" y1="489" x2="256" y2="27" gradientTransform="matrix(1 0 0 -1 0 514)">
	<stop  offset="0" style="stop-color:#2AF598"/>
	<stop  offset="1" style="stop-color:#009EFD"/>
</linearGradient>
<path style="fill:url(#SVGID_1_);" d="M432,217h-40v-40h40V217z M512,427V157c0-33.084-26.916-60-60-60h-73.575
	c-2.329,0-4.428-1.271-5.508-3.327L352.562,50.9c-0.056-0.117-0.112-0.233-0.171-0.349C344.512,34.791,328.67,25,311.049,25H202.376
	c-17.621,0-33.463,9.791-41.342,25.552c-0.059,0.116-0.115,0.232-0.171,0.349l-20.356,42.775C139.427,95.729,137.329,97,135,97H60
	c-33.084,0-60,26.916-60,60v270c0,33.084,26.916,60,60,60h392C485.084,487,512,460.084,512,427z M135,137
	c17.62,0,33.462-9.79,41.342-25.55c0.059-0.116,0.115-0.233,0.172-0.35l20.356-42.775c1.079-2.054,3.177-3.325,5.506-3.325h108.673
	c2.329,0,4.427,1.271,5.506,3.324l20.356,42.775c0.057,0.117,0.113,0.234,0.172,0.35c7.88,15.76,23.722,25.55,41.342,25.55H452
	c11.028,0,20,8.972,20,20v270c0,11.028-8.972,20-20,20H60c-11.028,0-20-8.972-20-20V157c0-11.028,8.972-20,20-20H135z M381,282
	c0-68.925-56.075-125-125-125s-125,56.075-125,125s56.075,125,125,125S381,350.925,381,282z M341,282c0,46.869-38.131,85-85,85
	s-85-38.131-85-85s38.131-85,85-85S341,235.131,341,282z"/>
<g>
</g>
<g>
</g>
<g>
</g>
<g>
</g>
<g>
</g>
<g>
</g>
<g>
</g>
<g>
</g>
<g>
</g>
<g>
</g>
<g>
</g>
<g>
</g>
<g>
</g>
<g>
</g>
<g>
</g>
</svg>
