<svg viewBox="0 0 512 512" xmlns="http://www.w3.org/2000/svg" xmlns:xlink="http://www.w3.org/1999/xlink"><linearGradient id="linear-gradient" gradientUnits="userSpaceOnUse" x1="74.98" x2="437.02" y1="74.98" y2="437.02"><stop offset="0" stop-color="#f8da30"/><stop offset="1" stop-color="#fdab22"/></linearGradient><linearGradient id="linear-gradient-2" gradientUnits="userSpaceOnUse" x1="289.8" x2="457.17" y1="249.49" y2="416.86"><stop offset="0" stop-color="#d38718"/><stop offset="1" stop-color="#d38718" stop-opacity="0"/></linearGradient><g id="Layer_2" data-name="Layer 2"><g id="Layer_2_copy_7" data-name="Layer 2 copy 7"><g id="_63" data-name="63"><circle id="background" cx="256" cy="256" fill="url(#linear-gradient)" r="256"/><path d="m512 260.64c-2 113.5-77.91 209-181.63 240.4l-146-146 217.44-204.54z" fill="url(#linear-gradient-2)"/><g id="_63-2" data-name="63"><path d="m412 175.1a34.69 34.69 0 0 1 -10.19 24.6l-161.81 161.8a34.79 34.79 0 0 1 -49.21 0l-80.61-80.6a34.8 34.8 0 1 1 49.21-49.21l56 56 137.21-137.19a34.8 34.8 0 0 1 59.4 24.6z" fill="#fff"/></g></g></g></g></svg>