<svg id="Layer_1" enable-background="new 0 0 450 450" height="512" viewBox="0 0 450 450" width="512" xmlns="http://www.w3.org/2000/svg"><g id="Layer_x0020_1"><g id="_743427504"><g id="Layer_22"><g><g><g><g><path id="_743428488" clip-rule="evenodd" d="m339.7 158.9c0-61.5-50.3-111.4-112.8-112.4-63.1-1-116.5 48.7-116.5 110.5 0 98.5 114.7 246.6 114.7 246.6s114.6-148.2 114.6-244.7z" fill="#ef3f32" fill-rule="evenodd"/></g></g></g><g><g><g><ellipse id="_743428224" clip-rule="evenodd" cx="225" cy="158.7" fill="#fff" fill-rule="evenodd" rx="51.1" ry="52"/></g><g><path id="_743428200" clip-rule="evenodd" d="m225 217.8c-15.6 0-30.3-6.2-41.3-17.4s-17-26-17-41.8 6.1-30.6 17-41.8c11-11.2 25.7-17.4 41.3-17.4s30.3 6.2 41.3 17.4 17 26 17 41.8-6.1 30.6-17 41.8c-11.1 11.2-25.7 17.4-41.3 17.4zm0-103.9c-24.2 0-43.9 20.1-43.9 44.8s19.7 44.8 43.9 44.8 43.9-20.1 43.9-44.8-19.7-44.8-43.9-44.8z" fill="#d02828" fill-rule="evenodd"/></g></g></g></g></g></g></g><path d="m-20.8-20.8h491.5v491.5h-491.5z" fill="none"/></svg>