<svg height="512" viewBox="0 0 60 60" width="512" xmlns="http://www.w3.org/2000/svg"><g id="Icons"><path d="m50.99 33.87c0 .04.01.09.01.13a10.987 10.987 0 0 1 -19 7.53 10.976 10.976 0 0 1 -18.81-5.56c-.23.01-.46.03-.69.03a8.506 8.506 0 0 1 -8.5-8.5 8.409 8.409 0 0 1 2.03-5.5 8.409 8.409 0 0 1 -2.03-5.5 8.506 8.506 0 0 1 8.5-8.5c.06 0 .11.01.17.01a9.5 9.5 0 0 1 8.83-6.01 9.369 9.369 0 0 1 4 .88 8.984 8.984 0 0 1 10.66-.25 12 12 0 0 1 15.84 11.37 11.412 11.412 0 0 1 -.08 1.32 9.488 9.488 0 0 1 -.93 18.55z" fill="#e8edfc"/><path d="m33.16 2.63a11.855 11.855 0 0 1 2.157-.5 8.89 8.89 0 0 0 -4.317-1.13 9.11 9.11 0 0 0 -1.515.127 8.907 8.907 0 0 1 3.675 1.503z" fill="#cad9fc"/><path d="m59 24.5a9.508 9.508 0 0 0 -7.08-9.18 11.412 11.412 0 0 0 .08-1.32 12 12 0 0 0 -12-12 12.191 12.191 0 0 0 -1.5.1 11.992 11.992 0 0 1 10.5 11.9 11.412 11.412 0 0 1 -.08 1.32 9.488 9.488 0 0 1 -.93 18.55c0 .04.01.09.01.13a10.986 10.986 0 0 1 -9.5 10.886 10.921 10.921 0 0 0 12.5-10.886c0-.04-.01-.09-.01-.13a9.491 9.491 0 0 0 8.01-9.37z" fill="#cad9fc"/><circle cx="8.5" cy="45.5" fill="#a4c2f7" r="4.5"/><path d="m8.5 41a4.445 4.445 0 0 0 -1.5.276 4.474 4.474 0 0 1 0 8.448 4.445 4.445 0 0 0 1.5.276 4.5 4.5 0 0 0 0-9z" fill="#7facfa"/><circle cx="4" cy="56" fill="#a4c2f7" r="3"/><path d="m4 53a2.968 2.968 0 0 0 -1.5.416 2.976 2.976 0 0 1 0 5.168 2.968 2.968 0 0 0 1.5.416 3 3 0 0 0 0-6z" fill="#7facfa"/><path d="m31 18.34a4.141 4.141 0 0 1 3.5-2.34c2.072 0 3.5 1.863 3.5 4.071 0 3.053-2.849 5.074-7 8.929-4.151-3.855-7-5.876-7-8.929 0-2.208 1.428-4.071 3.5-4.071a4.141 4.141 0 0 1 3.5 2.34z" fill="#c6d8fb"/><path d="m34.5 16a3.475 3.475 0 0 0 -1.536.353 4.093 4.093 0 0 1 2.036 3.718c0 2.669-2.178 4.55-5.5 7.557q.715.648 1.5 1.372c4.151-3.855 7-5.876 7-8.929 0-2.208-1.428-4.071-3.5-4.071z" fill="#a4c3fd"/></g><g id="Icons_copy_2" fill="#fff" data-name="Icons copy 2"><path d="m4 45.5a4.513 4.513 0 0 0 3.712 4.421 4.161 4.161 0 0 0 2.288-.2 4.477 4.477 0 0 1 0-8.448 4.5 4.5 0 0 0 -6 4.227z"/><path d="m16.19 35.97a8.5 8.5 0 0 1 -7.16-13.97 8.491 8.491 0 0 1 6.64-13.99 9.506 9.506 0 0 1 7.3-5.885 9.468 9.468 0 0 0 -10.3 5.885 8.5 8.5 0 0 0 -6.64 13.99 8.5 8.5 0 0 0 7.16 13.97 10.963 10.963 0 0 0 12.3 8.916 10.987 10.987 0 0 1 -9.3-8.916z"/><path d="m5.5 53.416a2.968 2.968 0 0 0 -1.5-.416 3.135 3.135 0 0 0 -1.5.416 2.976 2.976 0 0 0 0 5.168 3.3 3.3 0 0 0 .783.32 2.868 2.868 0 0 0 2.217-.32 2.976 2.976 0 0 1 0-5.168z"/></g><g id="Icons_copy" data-name="Icons copy"><path d="m3.273 14.273 1.944.469a7.435 7.435 0 0 0 1.572 6.607l-1.518 1.3a9.44 9.44 0 0 1 -1.998-8.376z" fill="#fff"/><g fill="#428dff"><path d="m4.264 19.483a1 1 0 0 1 -.01-2h.01a1 1 0 0 1 0 2z"/><path d="m52.984 14.6c.016-.2.016-.4.016-.6a13.007 13.007 0 0 0 -16.685-12.469 9.994 9.994 0 0 0 -10.942.2 10.5 10.5 0 0 0 -13.353 5.293 9.484 9.484 0 0 0 -8.747 7.249.957.957 0 0 0 .792 1.217 1.052 1.052 0 0 0 1.152-.748 7.681 7.681 0 0 1 2.65-4.128 7.535 7.535 0 0 1 4.633-1.614c.029 0 .145.009.174.009a1 1 0 0 0 .93-.633 8.447 8.447 0 0 1 7.896-5.376 8.321 8.321 0 0 1 3.574.785 1 1 0 0 0 1.039-.115 7.985 7.985 0 0 1 9.471-.223 1 1 0 0 0 .9.13 11 11 0 0 1 14.516 10.423 10.49 10.49 0 0 1 -.073 1.205 1 1 0 0 0 .736 1.082 8.488 8.488 0 0 1 -.829 16.6 1 1 0 0 0 -.844.987.616.616 0 0 0 .01.126 10.011 10.011 0 0 1 -10 10 9.911 9.911 0 0 1 -7.272-3.156 1.031 1.031 0 0 0 -1.456 0 9.975 9.975 0 0 1 -17.1-5.051.989.989 0 0 0 -1.031-.822l-.227.012c-.139.008-.277.017-.417.017a7.491 7.491 0 0 1 -5.708-12.349 1 1 0 1 0 -1.518-1.3 9.49 9.49 0 0 0 7.12 15.649 11.976 11.976 0 0 0 19.609 5.928 11.865 11.865 0 0 0 8 3.072 12.015 12.015 0 0 0 11.98-11.309 10.487 10.487 0 0 0 1-20.088z"/><path d="m8.5 40a5.5 5.5 0 1 0 5.5 5.5 5.507 5.507 0 0 0 -5.5-5.5zm0 9a3.5 3.5 0 1 1 3.5-3.5 3.5 3.5 0 0 1 -3.5 3.5z"/><path d="m4 52a4 4 0 1 0 4 4 4 4 0 0 0 -4-4zm0 6a2 2 0 1 1 2-2 2 2 0 0 1 -2 2z"/><path d="m21.318 30.666a1 1 0 0 0 -1.49 1.334 15.005 15.005 0 1 0 -3.808-10.394l-1.313-1.313a1 1 0 0 0 -1.414 1.414l3 3a1 1 0 0 0 1.414 0l3-3a1 1 0 0 0 -1.414-1.414l-1.271 1.271a12.989 12.989 0 1 1 3.3 9.1z"/><path d="m30.319 29.732a1 1 0 0 0 1.362 0c.633-.588 1.238-1.134 1.8-1.648 3.206-2.894 5.519-4.984 5.519-8.014 0-2.842-1.977-5.07-4.5-5.07a4.671 4.671 0 0 0 -3.5 1.6 4.671 4.671 0 0 0 -3.5-1.6c-2.523 0-4.5 2.228-4.5 5.07 0 3.029 2.312 5.12 5.514 8.014.567.516 1.172 1.06 1.805 1.648zm-5.319-9.662c0-1.488.876-3.07 2.5-3.07a3.115 3.115 0 0 1 2.594 1.762 1 1 0 0 0 .9.575 1.01 1.01 0 0 0 .908-.574 3.115 3.115 0 0 1 2.598-1.763c1.624 0 2.5 1.582 2.5 3.07 0 2.141-1.827 3.793-4.855 6.531-.368.332-.749.677-1.145 1.04-.4-.363-.777-.708-1.145-1.04-3.028-2.738-4.855-4.39-4.855-6.531z"/></g></g></svg>