<svg id="&#xB808;&#xC774;&#xC5B4;_1" enable-background="new 0 0 256 256" viewBox="0 0 256 256" xmlns="http://www.w3.org/2000/svg"><circle cx="128" cy="128" fill="#ffd664" r="128"/><path d="m181.8 118.6c-20.4 0-35.2-6.9-35.8-7.2-3.6-1.7-5.1-6-3.4-9.7 1.7-3.6 6-5.1 9.6-3.4.2.1 12.7 5.8 29.6 5.8 17 0 29.5-5.8 29.6-5.8 3.6-1.7 7.9-.2 9.6 3.5 1.7 3.6.2 7.9-3.4 9.6-.6.2-15.4 7.2-35.8 7.2z" fill="#191919"/><path d="m74.2 118.6c-18.5 0-34.8-6.8-35.5-7.1-3.7-1.6-5.4-5.8-3.9-9.5 1.6-3.7 5.8-5.4 9.5-3.9.1.1 14.5 6 29.9 6s29.8-5.9 29.9-6c3.7-1.5 7.9.2 9.5 3.9 1.5 3.7-.2 7.9-3.9 9.5-.7.3-17.1 7.1-35.5 7.1z" fill="#191919"/><path d="m256 128c0-14.4-2.4-28.3-6.8-41.2-7.8 60.8-43.8 172.9-205.1 137.9 22.5 19.5 51.8 31.3 83.9 31.3 70.7 0 128-57.3 128-128z" opacity=".06"/><path d="m47.5 63.4c-2 0-4.1-.7-5.8-2.1-3.8-3.2-4.3-8.9-1.1-12.7 22.1-26.2 48.1-31.1 49.2-31.3 4.9-.9 9.6 2.4 10.4 7.3.9 4.9-2.4 9.5-7.2 10.4-.5.1-21.1 4.3-38.7 25.1-1.7 2.2-4.3 3.3-6.8 3.3z" fill="#fff" opacity=".35"/><g fill="#191919"><path d="m128 198c-17.7 0-28.9-6.6-29.3-6.8-3.7-2.2-4.9-7-2.7-10.6 2.2-3.7 6.9-4.9 10.6-2.7.3.2 8.4 4.7 21.4 4.7 13.2 0 21.3-4.6 21.4-4.7 3.7-2.2 8.4-1 10.6 2.7s1 8.4-2.7 10.6c-.4.2-11.6 6.8-29.3 6.8z"/><path d="m212 83.4c-1.9 0-3.8-.8-5-2.4-18.2-22.3-47.2-25.2-47.5-25.3-3.6-.3-6.2-3.5-5.9-7.1s3.5-6.2 7.1-5.9c1.4.1 34.7 3.5 56.4 30 2.3 2.8 1.9 6.9-.9 9.1-1.3 1.2-2.8 1.6-4.2 1.6z"/><path d="m44 83.4c-1.4 0-2.9-.5-4.1-1.5-2.8-2.3-3.2-6.4-.9-9.1 21.6-26.5 54.9-29.9 56.4-30 3.6-.3 6.7 2.3 7.1 5.9.3 3.6-2.3 6.7-5.9 7.1-.4 0-29.4 3.1-47.5 25.3-1.3 1.5-3.2 2.3-5.1 2.3z"/></g></svg>