<svg id="Layer_1" enable-background="new 0 0 24 24" height="512" viewBox="0 0 24 24" width="512" xmlns="http://www.w3.org/2000/svg"><switch><g><circle cx="12" cy="12" fill="#03b8ff" r="12"/><path d="m12 13.4c-.4 0-.7.3-.7.7s.3.7.7.7.7-.3.7-.7-.3-.7-.7-.7zm0-8.4c-3.9 0-7 3.1-7 7 0 1.6.6 3.2 1.6 4.4l-1.4 1.4c-.2.2-.3.5-.1.8.1.2.3.4.6.4h6.3c3.9 0 7-3.1 7-7s-3.1-7-7-7zm0 12.6h-4.6l.7-.7c.1-.1.2-.3.2-.5s-.1-.4-.2-.5c-2.2-2.1-2.2-5.7-.1-7.9s5.7-2.2 7.9 0 2.2 5.7 0 7.9c-1 1.1-2.4 1.7-3.9 1.7zm0-8.4c-.4 0-.7.3-.7.7v2.1c0 .4.3.7.7.7s.7-.3.7-.7v-2.1c0-.4-.3-.7-.7-.7z" fill="#fff"/></g></switch></svg>