<?xml version="1.0" encoding="iso-8859-1"?>
<!-- Generator: Adobe Illustrator 19.0.0, SVG Export Plug-In . SVG Version: 6.00 Build 0)  -->
<svg version="1.1" id="Capa_1" xmlns="http://www.w3.org/2000/svg" xmlns:xlink="http://www.w3.org/1999/xlink" x="0px" y="0px"
	 viewBox="0 0 512 512" style="enable-background:new 0 0 512 512;" xml:space="preserve">
<circle style="fill:#FFD93B;" cx="256" cy="256" r="256"/>
<path style="fill:#F4C534;" d="M512,256c0,141.44-114.64,256-256,256c-80.48,0-152.32-37.12-199.28-95.28
	c43.92,35.52,99.84,56.72,160.72,56.72c141.36,0,256-114.56,256-256c0-60.88-21.2-116.8-56.72-160.72
	C474.8,103.68,512,175.52,512,256z"/>
<path style="fill:#FFFFFF;" d="M240.704,214.688c-8.48,44.24-54.32,77.28-102.4,73.664c-48.256-3.632-80.32-42.544-71.84-86.784
	c8.496-44.384,54.32-77.28,102.56-73.648C217.104,131.536,249.2,170.304,240.704,214.688z"/>
<circle style="fill:#3E4347;" cx="175.184" cy="202.416" r="39.728"/>
<g>
	
		<ellipse transform="matrix(-0.7071 -0.7071 0.7071 -0.7071 190.2529 455.1977)" style="fill:#FFFFFF;" cx="189.401" cy="188.196" rx="12.832" ry="7.92"/>
	<path style="fill:#FFFFFF;" d="M271.296,214.688c8.48,44.24,54.32,77.28,102.4,73.664c48.256-3.632,80.32-42.544,71.84-86.784
		c-8.496-44.384-54.32-77.28-102.56-73.648C294.896,131.536,262.8,170.304,271.296,214.688z"/>
</g>
<circle style="fill:#3E4347;" cx="336.8" cy="202.416" r="39.728"/>
<ellipse transform="matrix(-0.7071 -0.7071 0.7071 -0.7071 466.1487 569.4321)" style="fill:#FFFFFF;" cx="351.008" cy="188.174" rx="12.832" ry="7.92"/>
<g>
	<path style="fill:#3E4347;" d="M292.608,103.648c0,0,83.568-26.672,156.16,34.112C428.208,74.112,376.144,62.752,292.608,103.648z"
		/>
	<path style="fill:#3E4347;" d="M231.664,39.968c0,0-83.568-26.672-156.16,34.112C96.08,10.448,148.128-0.928,231.664,39.968z"/>
	<path style="fill:#3E4347;" d="M226.224,247.024c0,29.984-19.536,76.656-31.52,104.32c-49.152,0-113.824-8.32-154.72-16.48
		c-4.832-32.896-1.904-79.552,2.08-113.44C113.776,232.304,150.016,238.576,226.224,247.024z"/>
	<path style="fill:#3E4347;" d="M285.776,247.024c0,29.984,19.536,76.656,31.52,104.32c49.152,0,113.824-8.32,154.72-16.48
		c4.832-32.896,1.904-79.552-2.08-113.44C398.224,232.304,361.984,238.576,285.776,247.024z"/>
</g>
<g>
	<path style="fill:#5A5F63;" d="M114.928,232.56l-77.12,77.12c0.256,6.24,0.736,12.176,1.36,17.904l92.544-92.544
		C126.128,234.224,120.56,233.392,114.928,232.56z"/>
	<path style="fill:#5A5F63;" d="M176.368,241.12c-12.72-1.616-24.528-3.216-36.064-4.848L41.44,335.136
		c10.384,2.048,22.208,4.096,34.912,6.016L176.368,241.12z"/>
	<path style="fill:#5A5F63;" d="M349.504,239.312l-54.464,54.464c1.536,4.816,3.152,9.6,4.88,14.384l71.904-71.904
		C364.544,237.264,357.168,238.288,349.504,239.312z"/>
	<path style="fill:#5A5F63;" d="M431.504,227.312c-17.152,2.64-32.672,5.008-48.208,7.28l-80.768,80.768
		c3.984,10.528,8.08,20.416,11.808,29.12L431.504,227.312z"/>
</g>
<path style="fill:#E24B4B;" d="M489.936,213.904c-8.384-17.872-12.864-19.232-158.24,3.536c-25.008,3.92-50.384,5.904-75.696,5.904
	l0,0c-25.312,0-50.688-1.984-75.696-5.904c-145.36-22.784-149.856-21.408-158.24-3.536c-5.616,12.912-4.448,82.864-3.52,96.96
	c3.184,48.352-7.056,46.496,172.96,57.44c8.64-0.16,16.16-5.12,20-12.64c7.952-15.168,14.8-31.168,20.608-47.104
	c3.632-9.936,13.296-16.384,23.888-16.384l0,0c10.592,0,20.256,6.448,23.888,16.384c5.808,15.936,12.672,31.936,20.608,47.104
	c3.84,7.52,11.36,12.48,20,12.64c180.016-10.944,169.776-9.072,172.96-57.44C494.384,296.768,495.552,226.816,489.936,213.904z
	 M193.088,346.928c-47.136,0-118.864-9.856-151.44-16.16c-3.824-22.992-0.864-78.208,2.208-103.808
	c24.768,3.808,111.296,17.744,179.856,25.184C223.728,270.08,203.312,323.952,193.088,346.928z M470.352,330.768
	c-32.592,6.32-104.304,16.16-151.44,16.16c-10.224-22.976-30.624-76.848-30.624-94.784c68.576-7.44,155.104-21.376,179.872-25.184
	C471.216,252.56,474.176,307.776,470.352,330.768z"/>
<path style="fill:#3E4347;" d="M176.272,442.24c-2.368-0.688-1.504-6.496,1.024-6.352c36.224,0.912,103.072-5.248,158.048-54.56
	c3.984-3.568,8.288-0.304,8.112,6.24C342.672,418.464,325.44,489.36,176.272,442.24z"/>
<g>
</g>
<g>
</g>
<g>
</g>
<g>
</g>
<g>
</g>
<g>
</g>
<g>
</g>
<g>
</g>
<g>
</g>
<g>
</g>
<g>
</g>
<g>
</g>
<g>
</g>
<g>
</g>
<g>
</g>
</svg>
