<svg id="&#xB808;&#xC774;&#xC5B4;_1" enable-background="new 0 0 256 256" viewBox="0 0 256 256" xmlns="http://www.w3.org/2000/svg"><circle cx="128" cy="128" fill="#ffd664" r="128"/><path d="m52.3 104.1v127.1s19.7 15.5 44.1 20.9v-149.9z" fill="#80b1ff"/><path d="m203.7 104.1v127.2s-22.1 16.6-44.1 20.8v-149.8z" fill="#80b1ff"/><g fill="#191919"><path d="m143.1 204.4c-1.1 0-2.3-.3-3.4-.8-.2-.1-5.6-2.6-11.7-2.6-6.2 0-11.7 2.6-11.7 2.6-3.8 1.9-8.5.3-10.3-3.6s-.3-8.4 3.5-10.3c.9-.4 8.8-4.2 18.5-4.2s17.7 3.8 18.5 4.2c3.8 1.9 5.4 6.5 3.5 10.4-1.3 2.7-4 4.3-6.9 4.3z"/><path d="m105.9 121.7c-1.4 0-2.9-.4-4.2-1.3-.1-.1-13.5-9.3-27.6-9.3-14 0-27.4 9.2-27.6 9.3-3.3 2.3-7.8 1.5-10.1-1.8s-1.5-7.8 1.7-10.1c.7-.5 17.2-12 35.9-12s35.2 11.5 35.9 12c3.3 2.3 4.1 6.8 1.7 10.1-1.2 2-3.4 3.1-5.7 3.1z"/><path d="m150.1 121.7c1.4 0 2.9-.4 4.2-1.3.1-.1 13.5-9.3 27.6-9.3 14 0 27.4 9.2 27.6 9.3 3.3 2.3 7.8 1.5 10.1-1.8s1.5-7.8-1.7-10.1c-.7-.5-17.2-12-35.9-12s-35.2 11.5-35.9 12c-3.3 2.3-4.1 6.8-1.7 10.1 1.2 2 3.4 3.1 5.7 3.1z"/></g><path d="m256 128c0-14.4-2.4-28.3-6.8-41.2-7.8 60.8-43.8 172.9-205.1 137.9 22.5 19.5 51.8 31.3 83.9 31.3 70.7 0 128-57.3 128-128z" opacity=".06"/><path d="m47.5 63.4c-2 0-4.1-.7-5.8-2.1-3.8-3.2-4.3-8.9-1.1-12.7 22.1-26.2 48.1-31.1 49.2-31.3 4.9-.9 9.6 2.4 10.4 7.3.9 4.9-2.4 9.5-7.2 10.4-.5.1-21.1 4.3-38.7 25.1-1.7 2.2-4.3 3.3-6.8 3.3z" fill="#fff" opacity=".35"/><g fill="#191919"><path d="m66.4 81.3c-1.7 0-3.3-.1-5-.2-3.6-.3-6.2-3.5-5.9-7.1s3.5-6.2 7.1-5.9c22.2 2.1 39.3-14.8 39.5-14.9 2.5-2.5 6.6-2.5 9.2 0 2.5 2.5 2.6 6.6 0 9.2-.8.7-19.1 18.9-44.9 18.9z"/><path d="m189.6 81.3c-25.8 0-44.1-18.1-44.9-18.9-2.5-2.6-2.5-6.7 0-9.2s6.7-2.5 9.2 0c.2.2 17.3 17 39.5 14.9 3.6-.3 6.7 2.3 7.1 5.9.3 3.6-2.3 6.7-5.9 7.1-1.7.1-3.4.2-5 .2z"/></g></svg>