<?xml version="1.0" encoding="iso-8859-1"?>
<!-- Generator: Adobe Illustrator 19.0.0, SVG Export Plug-In . SVG Version: 6.00 Build 0)  -->
<svg version="1.1" id="Capa_1" xmlns="http://www.w3.org/2000/svg" xmlns:xlink="http://www.w3.org/1999/xlink" x="0px" y="0px"
	 viewBox="0 0 512 512" style="enable-background:new 0 0 512 512;" xml:space="preserve">
<path style="fill:#FFB751;" d="M258.781,0.021v511.959C398.886,510.496,512,396.455,512,256S398.886,1.504,258.781,0.021z"/>
<path style="fill:#FFD764;" d="M258.781,0.021C257.854,0.01,256.927,0,256,0C114.618,0,0,114.618,0,256s114.618,256,256,256
	c0.927,0,1.854-0.01,2.781-0.021C376.119,510.207,470.793,396.28,470.793,256S376.119,1.793,258.781,0.021z"/>
<path style="fill:#FF5440;" d="M75.021,286.139l27.596,66.624c18.398-7.62,27.134-28.712,19.514-47.11
	C114.511,287.255,93.419,278.518,75.021,286.139z"/>
<g>
	<path style="fill:#FF804C;" d="M75.021,286.139c7.881-3.265,20.454,9.001,28.074,27.399c7.62,18.398,7.402,35.961-0.478,39.225
		c-18.398,7.62-39.489-1.116-47.11-19.514S56.623,293.759,75.021,286.139z"/>
	<path style="fill:#FF804C;" d="M221.659,313.251c-22.269,0-44.479-5.33-64.784-15.909c-3.784-1.972-5.254-6.637-3.282-10.422
		c1.972-3.785,6.64-5.252,10.422-3.282c32.812,17.095,71.214,18.787,105.36,4.644c34.143-14.143,60.101-42.493,71.215-77.78
		c1.282-4.07,5.621-6.331,9.691-5.048c4.07,1.282,6.33,5.621,5.048,9.691c-12.491,39.657-41.665,71.517-80.04,87.414
		C258.042,309.701,239.83,313.251,221.659,313.251z"/>
</g>
<g>
	<path style="fill:#401510;" d="M104.214,243.198c-3.032,0-5.909-1.797-7.141-4.772c-8.152-19.681,1.228-42.323,20.908-50.476
		c19.679-8.151,42.323,1.227,50.475,20.908c1.633,3.942-0.239,8.462-4.182,10.095c-3.941,1.633-8.462-0.239-10.095-4.182
		c-4.891-11.808-18.479-17.435-30.284-12.545c-11.808,4.891-17.435,18.477-12.545,30.285c1.633,3.943-0.239,8.462-4.182,10.095
		C106.2,243.008,105.199,243.198,104.214,243.198z"/>
	<path style="fill:#401510;" d="M291.711,165.535c-3.032,0-5.909-1.797-7.141-4.772c-8.152-19.681,1.227-42.323,20.908-50.475
		c9.533-3.95,20.034-3.95,29.567,0c9.533,3.949,16.959,11.374,20.908,20.908c1.633,3.943-0.239,8.462-4.181,10.095
		c-3.94,1.633-8.462-0.239-10.095-4.182c-2.369-5.721-6.824-10.175-12.545-12.545c-5.72-2.369-12.019-2.368-17.741,0
		c-11.808,4.891-17.435,18.476-12.545,30.284c1.633,3.942-0.239,8.462-4.181,10.095
		C293.698,165.344,292.697,165.535,291.711,165.535z"/>
</g>
<path style="fill:#FFB751;" d="M277.021,334.658c-3.032,0-5.908-1.797-7.141-4.772c-1.633-3.943,0.239-8.462,4.181-10.095
	l14.276-5.913c3.941-1.631,8.463,0.239,10.095,4.181c1.633,3.943-0.239,8.462-4.181,10.095l-14.276,5.913
	C279.007,334.469,278.006,334.658,277.021,334.658z"/>
<path style="fill:#FF5440;" d="M405.287,149.338l27.596,66.624c18.398-7.62,27.134-28.712,19.514-47.11
	C444.777,150.454,423.684,141.718,405.287,149.338z"/>
<path style="fill:#FF804C;" d="M405.287,149.338c7.881-3.265,20.454,9.001,28.074,27.399c7.62,18.398,7.402,35.961-0.478,39.225
	c-18.398,7.62-39.489-1.116-47.11-19.514C378.152,178.05,386.889,156.958,405.287,149.338z"/>
<g>
</g>
<g>
</g>
<g>
</g>
<g>
</g>
<g>
</g>
<g>
</g>
<g>
</g>
<g>
</g>
<g>
</g>
<g>
</g>
<g>
</g>
<g>
</g>
<g>
</g>
<g>
</g>
<g>
</g>
</svg>
