<svg id="Capa_1" enable-background="new 0 0 512 512" height="512" viewBox="0 0 512 512" width="512" xmlns="http://www.w3.org/2000/svg"><g><path d="m431.77 179.991c-43.144-43.144-113.095-43.144-156.24 0l-19.53 19.529-10 123.27 10 189.21 175.77-175.77c43.144-43.144 43.144-113.095 0-156.239z" fill="#f37"/><path d="m236.47 179.991c-43.144-43.144-113.095-43.144-156.24 0s-43.144 113.095 0 156.24l175.77 175.769v-312.48z" fill="#f69"/><g fill="#e6ecf2"><path d="m277.213 346.577 21.213-21.213c-11.332-11.333-26.4-17.574-42.426-17.574l-10 15 10 15c8.013 0 15.547 3.121 21.213 8.787z"/><path d="m340.853 282.938c-23.394-23.394-54.123-35.091-84.853-35.091l-10 15 10 14.986c23.047 0 46.094 8.773 63.64 26.318z"/><path d="m256 414.61 21.213-21.214-21.213-21.212-10 21.212 10 21.213z"/></g><path d="m241 0h30v121.497h-30z" fill="#fd3"/><path d="m181 30h30v76.497h-30z" fill="#fd3"/><path d="m301 30h30v76.497h-30z" fill="#ffbf80"/><path d="m361 60h30v46.497h-30z" fill="#ffbf80"/><path d="m121 60h30v46.497h-30z" fill="#fd3"/><path d="m234.787 346.577c5.667-5.666 13.2-8.787 21.213-8.787v-30c-16.026 0-31.094 6.241-42.426 17.574z" fill="#fff5f5"/><path d="m171.147 282.938 21.213 21.213c17.546-17.546 40.593-26.318 63.64-26.318v-29.986c-30.729-.001-61.459 11.696-84.853 35.091z" fill="#fff5f5"/><path d="m234.787 393.397 21.213 21.212v-42.425z" fill="#fff5f5"/></g></svg>