<svg id="Layer_1" enable-background="new 0 0 512 512" height="512" viewBox="0 0 512 512" width="512" xmlns="http://www.w3.org/2000/svg"><g><path d="m490.289 189.083-32.133-16.066c-7.41-3.705-10.413-12.715-6.708-20.125s12.716-10.413 20.125-6.708l32.133 16.066c7.41 3.705 10.413 12.715 6.708 20.125-3.711 7.42-12.726 10.408-20.125 6.708z" fill="#afd7e6"/><path d="m451.447 37.779c-3.705-7.41-.702-16.42 6.708-20.125l32.133-16.067c7.41-3.706 16.42-.701 20.125 6.708 3.705 7.41.702 16.42-6.708 20.125l-32.133 16.067c-7.38 3.69-16.405.732-20.125-6.708z" fill="#afd7e6"/><path d="m391.242 21.566c-28.758-28.755-75.547-28.754-104.302-.001l-30.94 30.938-30.94-30.938c-28.755-28.753-75.544-28.753-104.302.001-28.801 28.801-28.85 75.453 0 104.303l124.635 124.636c2.813 2.813 6.628 4.394 10.607 4.394s7.794-1.581 10.607-4.394l124.635-124.636c28.85-28.85 28.801-75.502 0-104.303z" fill="#ff647d"/><path d="m391.242 21.566c-28.758-28.755-75.547-28.754-104.302-.001l-30.94 30.938v202.396c3.979 0 7.794-1.581 10.607-4.394l124.635-124.636c28.85-28.85 28.801-75.502 0-104.303z" fill="#ff003c"/><path d="m475.401 329.213c-19.944-19.892-50.898-18.628-69.559.034l-72.548 72.55c-8.913 8.904-20.744 13.803-33.32 13.803h-54.438c-8.077 0-15.027-6.207-15.407-14.275-.406-8.614 6.458-15.725 14.983-15.725h48.576c17.747 0 32.133-14.387 32.133-32.133s-14.387-32.133-32.133-32.133h-97.832c-45.505 0-59.923 38.332-62.313 48.2h-38.21c-8.284 0-15 6.716-15 15v80.333c0 8.284 6.716 15 15 15h221.844c18.652 0 36.193-7.266 49.393-20.461l108.903-108.907c5.7-5.699 6.046-15.184-.072-21.286z" fill="#ffe6d7"/><path d="m475.401 329.213c-19.944-19.892-50.898-18.628-69.559.034l-72.548 72.55c-8.913 8.904-20.744 13.803-33.32 13.803h-219.641v49.267c0 8.284 6.716 15 15 15h221.844c18.652 0 36.193-7.266 49.393-20.461l108.903-108.907c5.7-5.699 6.046-15.184-.072-21.286z" fill="#ffc3c3"/><path d="m95.333 512h-80.333c-8.284 0-15-6.716-15-15v-144.6c0-8.284 6.716-15 15-15h80.333c8.284 0 15 6.716 15 15v144.6c0 8.284-6.715 15-15 15z" fill="#ebf5f0"/><g fill="#cde6eb"><path d="m15 512h80.333c8.284 0 15-6.716 15-15v-81.4h-110.333v81.4c0 8.284 6.716 15 15 15z"/><path d="m21.711 189.083 32.133-16.066c7.41-3.705 10.413-12.715 6.708-20.125s-12.716-10.413-20.125-6.708l-32.132 16.066c-7.41 3.705-10.413 12.715-6.708 20.125 3.71 7.42 12.725 10.408 20.124 6.708z"/><path d="m60.553 37.779c3.705-7.41.702-16.42-6.708-20.125l-32.133-16.067c-7.41-3.706-16.42-.701-20.125 6.708-3.705 7.41-.702 16.42 6.708 20.125l32.133 16.067c7.38 3.69 16.405.732 20.125-6.708z"/></g></g></svg>