<svg id="Layer_1" enable-background="new 0 0 512 512" height="512" viewBox="0 0 512 512" width="512" xmlns="http://www.w3.org/2000/svg"><g id="XMLID_1_"><g id="XMLID_3028_"><path id="XMLID_1149_" d="m507 256c0 172.7-139.6 200-251 200s-251-27.3-251-200 131.1-200 251-200 251 27.3 251 200z" fill="#ffcb5d"/><path id="XMLID_1611_" d="m256 56c-8.1 0-16.3.1-24.5.4 112.6 4 226.5 38.6 226.5 199.6 0 160.2-120.2 195.3-226.5 199.5 8.3.3 16.5.5 24.5.5 111.4 0 251-27.3 251-200s-131.1-200-251-200z" fill="#ffb30f"/><path id="XMLID_1347_" d="m503 204.6c-17 128.4-66.5 58.7-115.1 111.6-48.5 52.9-92.2-28.6-170.8 5.8-78.5 34.4-71.4-54.7-127.6-37.2-56 17.5-73.5-29.4-80.5-80.2 24-126.9 140.1-148.6 247-148.6s223 21.7 247 148.6z" fill="#d84861"/><path id="XMLID_1588_" d="m336 181c0 22.1-35.8 40-80 40s-80-17.9-80-40 35.8-40 80-40 80 17.9 80 40z" fill="#c22945"/><path id="XMLID_1150_" d="m186.7 201c13.8 12 39.7 20 69.3 20s55.4-8 69.3-20c-13.8-12-39.7-20-69.3-20s-55.4 8-69.3 20z" fill="#ffcb5d"/><path id="XMLID_1147_" d="m66.2 195.1c3.9 3.9 10.2 3.9 14.1 0l14.1-14.1c3.9-3.9 3.9-10.2 0-14.1-3.9-3.9-10.2-3.9-14.1 0l-14.1 14.1c-3.9 3.9-3.9 10.2 0 14.1z" fill="#399349"/><path id="XMLID_1146_" d="m409.8 183.5c3.9 3.9 10.2 3.9 14.1 0l14.1-14.1c3.9-3.9 3.9-10.2 0-14.1-3.9-3.9-10.2-3.9-14.1 0l-14.1 14.1c-4 3.8-4 10.2 0 14.1z" fill="#b24e10"/><path id="XMLID_1145_" d="m138.9 252.6c0 5.5 4.5 10 10 10h20c5.5 0 10-4.5 10-10 0-5.5-4.5-10-10-10h-20c-5.5 0-10 4.4-10 10z" fill="#ffcb5d"/><path id="XMLID_1144_" d="m256 127.9c5.5 0 10-4.5 10-10v-20c0-5.5-4.5-10-10-10-5.5 0-10 4.5-10 10v20c0 5.6 4.5 10 10 10z" fill="#399349"/><path id="XMLID_1143_" d="m345.3 235.5c-3.9 3.9-3.9 10.2 0 14.1l14.1 14.1c3.9 3.9 10.2 3.9 14.1 0 3.9-3.9 3.9-10.2 0-14.1l-14.1-14.1c-3.9-3.9-10.2-3.9-14.1 0z" fill="#399349"/><path id="XMLID_1142_" d="m151.9 110.9c-3.9 3.9-3.9 10.2 0 14.1l14.1 14.1c3.9 3.9 10.2 3.9 14.1 0 3.9-3.9 3.9-10.2 0-14.1l-14.1-14.1c-3.9-3.9-10.2-3.9-14.1 0z" fill="#b24e10"/><path id="XMLID_1141_" d="m333.1 118.3c0 5.5 4.5 10 10 10h20c5.5 0 10-4.5 10-10 0-5.5-4.5-10-10-10h-20c-5.6 0-10 4.5-10 10z" fill="#ffcb5d"/><path id="XMLID_1140_" d="m270.1 249c-3.9-3.9-10.2-3.9-14.1 0l-14.1 14.1c-3.9 3.9-3.9 10.2 0 14.1 3.9 3.9 10.2 3.9 14.1 0l14.1-14.1c3.9-3.8 3.9-10.2 0-14.1z" fill="#b24e10"/><path id="XMLID_1637_" d="m256 56c-8.1 0-16.3.1-24.6.4 112.7 4 226.6 38.6 226.6 199.6 0 11.7-.7 22.6-1.9 33 21.1-5 38.2-19 46.9-84.4-24-126.9-140.1-148.6-247-148.6z" fill="#c22945"/></g><g id="XMLID_2437_"><g id="XMLID_180_"><path id="XMLID_2194_" d="m256 226c-47.7 0-85-19.8-85-45h10c0 19 34.3 35 75 35s75-16 75-35h10c0 25.2-37.3 45-85 45z" fill="#4d241a"/></g><g id="XMLID_220_"><path id="XMLID_2193_" d="m190 204.8-6.5-7.6c15.3-13.3 42.5-21.2 72.5-21.2 18.7 0 36.3 3.1 51.1 8.8l-3.6 9.3c-13.6-5.3-30-8.1-47.4-8.1-27.4 0-52.7 7.2-66.1 18.8z" fill="#4d241a"/></g><g id="XMLID_191_"><path id="XMLID_2190_" d="m256 461c-72.7 0-128.2-11.8-169.8-35.9-57.2-33.3-86.2-90.2-86.2-169.1 0-41.8 7.7-77.6 22.9-106.4 13.7-26 33.9-47.1 60-62.6 41.2-24.5 96.2-36 173-36s131.8 11.4 173 36c26.1 15.5 46.3 36.6 60 62.6 15.4 28.8 23.1 64.6 23.1 106.4 0 78.9-29 135.8-86.2 169.1-41.6 24.1-97.1 35.9-169.8 35.9zm0-400c-74.9 0-128.3 11-167.9 34.5-52.6 31.3-78.1 83.8-78.1 160.5 0 131.2 80.5 195 246 195s246-63.8 246-195c0-76.7-25.5-129.2-78.1-160.5-39.6-23.5-93-34.5-167.9-34.5z" fill="#4d241a"/></g><g id="XMLID_969_"><path id="XMLID_2189_" d="m350.3 339.7c-13.4 0-26.9-4.8-40.8-9.7-25.4-9-54.2-19.2-90.5-3.3-13.5 5.9-24.8 8.3-34.3 8.3-23.5 0-36.8-14.5-48.1-26.8-13-14.2-23.3-25.4-45.4-18.5-29 9.1-51.3 2.6-66.2-19.1l8.2-5.7c12.3 18 30.3 22.9 55 15.2 28.2-8.8 42.8 7.2 55.8 21.3 15.9 17.3 30.9 33.7 71 16.1 39.9-17.5 70.7-6.6 97.8 3.1 28.1 10 48.4 17.2 71.1-7.7 19.5-21.3 39.2-24 56.6-26.4 13.3-1.8 24.8-3.4 34.1-13.3 10.9-11.7 18.2-33.7 22.8-69.2l9.9 1.3c-4.9 37.7-13 61.5-25.5 74.8-11.8 12.5-26.2 14.5-40.1 16.4-16.5 2.2-33.5 4.5-50.6 23.2-13.5 14.9-27.1 20-40.8 20z" fill="#4d241a"/></g><g id="XMLID_214_"><path id="XMLID_2186_" d="m73.2 203.1c-3.8 0-7.7-1.5-10.6-4.4-5.8-5.8-5.8-15.4 0-21.2l14.1-14.1c5.8-5.8 15.4-5.8 21.2 0s5.8 15.4 0 21.2l-14.1 14.1c-2.9 2.9-6.7 4.4-10.6 4.4zm-3.5-11.5c1.9 2 5.1 2 7.1 0l14.1-14.1c1.9-1.9 1.9-5.1 0-7.1-1.9-1.9-5.1-1.9-7.1 0l-14.1 14.1c-2 2-2 5.2 0 7.1z" fill="#4d241a"/></g><g id="XMLID_224_"><path id="XMLID_2183_" d="m416.8 191.4c-3.8 0-7.7-1.5-10.6-4.4-2.8-2.8-4.4-6.6-4.4-10.6s1.6-7.8 4.4-10.6l14.1-14.1c5.8-5.8 15.4-5.8 21.2 0s5.8 15.4 0 21.2l-14.1 14.1c-2.9 2.9-6.7 4.4-10.6 4.4zm14.2-34.1c-1.3 0-2.6.5-3.5 1.5l-14.1 14.1c-.9.9-1.5 2.2-1.5 3.5s.5 2.6 1.5 3.5c1.9 2 5.1 1.9 7.1 0l14.1-14.1c1.9-1.9 1.9-5.1 0-7.1-1.1-1-2.4-1.4-3.6-1.4z" fill="#4d241a"/></g><g id="XMLID_219_"><path id="XMLID_2180_" d="m168.9 267.6h-20c-8.3 0-15-6.7-15-15s6.7-15 15-15h20c8.3 0 15 6.7 15 15s-6.7 15-15 15zm-20-20c-2.8 0-5 2.2-5 5s2.2 5 5 5h20c2.8 0 5-2.2 5-5s-2.2-5-5-5z" fill="#4d241a"/></g><g id="XMLID_222_"><path id="XMLID_2177_" d="m256 132.9c-8.3 0-15-6.7-15-15v-20c0-8.3 6.7-15 15-15s15 6.7 15 15v20c0 8.3-6.7 15-15 15zm0-40c-2.8 0-5 2.2-5 5v20c0 2.8 2.2 5 5 5s5-2.2 5-5v-20c0-2.7-2.2-5-5-5z" fill="#4d241a"/></g><g id="XMLID_225_"><path id="XMLID_2174_" d="m366.5 271.7c-3.8 0-7.7-1.5-10.6-4.4l-14.1-14.1c-5.8-5.8-5.8-15.4 0-21.2s15.4-5.8 21.2 0l14.1 14.1c5.8 5.8 5.8 15.4 0 21.2-2.9 2.9-6.8 4.4-10.6 4.4zm-14.2-34.1c-1.3 0-2.6.5-3.5 1.5-1.9 1.9-1.9 5.1 0 7.1l14.1 14.1c1.9 2 5.1 2 7.1 0 1.9-1.9 1.9-5.1 0-7.1l-14.1-14.2c-1-.9-2.3-1.4-3.6-1.4z" fill="#4d241a"/></g><g id="XMLID_221_"><path id="XMLID_2171_" d="m173.1 147.1c-3.8 0-7.7-1.5-10.6-4.4l-14.1-14.1c-5.8-5.8-5.8-15.4 0-21.2s15.4-5.8 21.2 0l14.1 14.1c5.8 5.8 5.8 15.4 0 21.2-2.9 2.9-6.8 4.4-10.6 4.4zm-14.2-34.2c-1.3 0-2.6.5-3.5 1.5-1.9 1.9-1.9 5.1 0 7.1l14.1 14.1c1.9 2 5.1 1.9 7.1 0 1.9-1.9 1.9-5.1 0-7.1l-14.1-14.1c-1-1-2.3-1.5-3.6-1.5z" fill="#4d241a"/></g><g id="XMLID_223_"><path id="XMLID_2168_" d="m363.1 133.3h-20c-8.3 0-15-6.7-15-15s6.7-15 15-15h20c8.3 0 15 6.7 15 15s-6.8 15-15 15zm-20-20c-2.8 0-5 2.2-5 5s2.2 5 5 5h20c2.8 0 5-2.2 5-5s-2.2-5-5-5z" fill="#4d241a"/></g><g id="XMLID_226_"><path id="XMLID_2165_" d="m248.9 285.2c-3.8 0-7.7-1.5-10.6-4.4-5.8-5.8-5.8-15.4 0-21.2l14.1-14.1c5.8-5.8 15.4-5.8 21.2 0s5.8 15.4 0 21.2l-14.1 14.1c-2.9 3-6.7 4.4-10.6 4.4zm14.2-34.1c-1.3 0-2.6.5-3.5 1.5l-14.1 14.1c-1.9 1.9-1.9 5.1 0 7.1s5.1 2 7.1 0l14.1-14.1c1.9-1.9 1.9-5.1 0-7.1-1.1-1-2.3-1.5-3.6-1.5z" fill="#4d241a"/></g></g></g></svg>