<svg id="Layer_1" height="512" viewBox="0 0 512 512" width="512" xmlns="http://www.w3.org/2000/svg" data-name="Layer 1"><path d="m256.249.5c141.384 0 256 114.623 256 256.006s-114.615 256-256 256-255.999-114.626-255.999-256.006 114.623-256 255.999-256zm141.4 169.964-96.226 137.429 36.09 25.266 96.228-137.427-36.089-25.271zm-102.407 153.343-.883 31.223 30-10.841-29.119-20.382zm128.344-179.451a21.156 21.156 0 0 0 -13.8 8.768l-2.609 3.773 36.068 25.253 2.635-3.764a21.393 21.393 0 0 0 -5.24-29.739l-1.1-.777a21.224 21.224 0 0 0 -15.949-3.514zm-288.863-17.5v259.287h211.021v-33.494l-4.252 2.732a8.551 8.551 0 0 1 -1.77.888l-51.174 18.48a8.212 8.212 0 0 1 -2.811.491 8.277 8.277 0 0 1 -8.289-8.521l1.5-53.252a8.344 8.344 0 0 1 1.493-4.524l65.3-93.251v-32.7l-55.193-56.133z" fill="#2196f3" fill-rule="evenodd"/></svg>