<svg enable-background="new 0 0 512 512" height="512" viewBox="0 0 512 512" width="512" xmlns="http://www.w3.org/2000/svg"><g id="Layer_2"><g><path d="m12.2 153.9h501.1v313.9c0 24.5-19.8 44.3-44.3 44.3h-412.6c-24.5 0-44.3-19.8-44.3-44.3v-313.9z" fill="#fff4f6"/><path d="m12.2 153.8h501.1v-49.6c0-24.5-19.8-44.3-44.3-44.3h-412.6c-24.4.1-44.2 19.9-44.2 44.4z" fill="#ff9f41"/><path d="m161.2 32v56c0 17.7-14.3 32-32 32-17.7 0-32-14.3-32-32v-56c0-17.7 14.3-32 32-32 17.7 0 32 14.3 32 32z" fill="#b250b5"/><path d="m428.2 32v56c0 17.7-14.3 32-32 32-17.7 0-32-14.3-32-32v-56c0-17.7 14.3-32 32-32 17.7 0 32 14.3 32 32z" fill="#b250b5"/><path d="m283.7 225.2 32.2 40.7c3.1 4 7.3 6.9 12.1 8.6l45.4 16c15.8 5.6 22.7 24.2 14.2 38.7l-27.9 47.8c-2 3.5-3.3 7.4-3.6 11.4l-3.8 49c-1.2 15.9-16 27.2-31.7 24.2l-52.8-10.1c-3.3-.6-6.7-.6-10.1 0l-52.8 10.1c-15.7 3-30.4-8.3-31.7-24.2l-3.8-49c-.3-4-1.5-7.9-3.6-11.4l-27.9-47.8c-8.5-14.5-1.6-33.1 14.2-38.7l45.4-16c4.8-1.7 8.9-4.7 12.1-8.6l32.2-40.7c10.7-13.6 31.2-13.6 41.9 0z" fill="#ff9f41"/><path d="m513.3 153.8v313.9c0 24.4-19.8 44.3-44.3 44.3h-412.6c-18.9 0-35.1-11.9-41.4-28.6 4.8 1.8 10.1 2.8 15.6 2.8h412.6c24.4 0 44.3-19.8 44.3-44.3v-288.1z" fill="#eae6f3"/><path d="m387.6 329.2-27.9 47.8c-2 3.5-3.3 7.4-3.6 11.4l-3.8 49c-1.2 15.9-16 27.2-31.7 24.2l-52.8-10.1c-3.3-.6-6.7-.6-10.1 0l-52.8 10.1c-15.6 3-30.4-8.3-31.7-24.2l-.4-4.6c3 .5 6.2.5 9.5-.1l52.8-10.1c3.3-.6 6.8-.6 10.1 0l52.8 10.1c15.7 3 30.5-8.3 31.7-24.2l3.8-49c.3-4 1.5-7.9 3.6-11.4l27.9-47.8c2.1-3.6 3.3-7.6 3.6-11.4l4.8 1.7c15.8 5.5 22.6 24.1 14.2 38.6z" fill="#ff8641"/><path d="m161.2 32v56c0 17.7-14.3 32-32 32-8.8 0-16.8-3.6-22.6-9.4-2.1-2.1-3.8-4.4-5.3-7 5.2 3.7 11.5 5.8 18.4 5.8 17.7 0 32-14.3 32-32v-56c0-5.7-1.5-11-4.1-15.6 1.5 1.1 2.9 2.3 4.2 3.6 5.8 5.8 9.4 13.7 9.4 22.6z" fill="#4f1968"/><path d="m428.2 32v56c0 17.7-14.3 32-32 32-8.8 0-16.8-3.6-22.6-9.4-2.1-2.1-3.8-4.4-5.3-7 5.2 3.7 11.5 5.8 18.4 5.8 17.6 0 32-14.3 32-32v-56c0-5.7-1.5-11-4.1-15.6 1.5 1.1 2.9 2.3 4.2 3.6 5.8 5.8 9.4 13.7 9.4 22.6z" fill="#4f1968"/><path d="m87.8 60c-24.4 0-44.3 19.8-44.3 44.3v49.6h-31.3v-49.6c0-24.5 19.8-44.3 44.2-44.3z" fill="#ffdf3f"/></g></g></svg>