<svg id="Capa_1" enable-background="new 0 0 512 512" height="512" viewBox="0 0 512 512" width="512" xmlns="http://www.w3.org/2000/svg"><g><path d="m240.57 481.391h119.074c8.732 0 15.811-7.079 15.811-15.811v-419.16c0-8.732-7.079-15.811-15.811-15.811h-119.074z" fill="#ffeee7"/><path d="m375.453 46.422v419.157c0 8.73-7.079 15.808-15.809 15.808h-20.514c8.73 0 15.809-7.079 15.809-15.808v-419.157c0-8.73-7.079-15.808-15.809-15.808h20.514c8.73-.001 15.809 7.078 15.809 15.808z" fill="#ffe2db"/><path d="m252.036 19.887v472.226c0 9.947-9.075 17.423-18.838 15.519l-220.414-42.995c-7.425-1.448-12.784-7.953-12.784-15.519v-386.237c0-7.565 5.359-14.07 12.784-15.519l220.414-42.994c9.763-1.904 18.838 5.572 18.838 15.519z" fill="#e19974"/><path d="m252.038 19.892v472.217c0 9.947-9.081 17.429-18.842 15.52l-9.617-1.878c4.633-2.724 7.822-7.75 7.822-13.642v-472.217c0-5.892-3.189-10.918-7.822-13.642l9.617-1.878c9.761-1.909 18.842 5.572 18.842 15.52z" fill="#dc8758"/><g><path d="m191.972 292.584h-4.245c-4.142 0-7.5-3.357-7.5-7.5s3.358-7.5 7.5-7.5h4.245c4.718 0 8.557-3.515 8.557-7.835v-27.498c0-4.32-3.838-7.835-8.557-7.835h-4.245c-4.142 0-7.5-3.357-7.5-7.5s3.358-7.5 7.5-7.5h4.245c12.989 0 23.557 10.244 23.557 22.835v27.498c0 12.591-10.568 22.835-23.557 22.835z" fill="#cc764c"/></g><g><path d="m303.95 208.671h-11.63c-4.594 0-8.319 3.725-8.319 8.319v78.019c0 4.594 3.725 8.319 8.319 8.319h105.478c3.47 0 6.282 2.813 6.282 6.282v22.853c0 8.105 9.512 12.473 15.659 7.189l88.96-76.462c4.401-3.783 4.401-10.596 0-14.379l-88.96-76.465c-6.147-5.283-15.659-.916-15.659 7.189v22.852c0 3.47-2.813 6.282-6.282 6.282h-29.792-64.056z" fill="#c8effe"/><path d="m284 281.454c20.072-.04 84.546.142 98.234.142h1.53 26.104c5.18 0 9.379 4.199 9.379 9.379v7.234c0 4.28 5.022 6.586 8.269 3.797l70.48-60.554c.36-.311.691-.642.992-.992l9.71 8.348c4.398 3.785 4.398 10.605 0 14.38l-88.955 76.463c-6.149 5.283-15.664.915-15.664-7.19v-22.854c0-3.466-2.81-6.275-6.275-6.275h-105.485c-4.594 0-8.319-3.724-8.319-8.319z" fill="#99e6fc"/></g></g></svg>