<svg id="Gradient" viewBox="0 0 48 48" xmlns="http://www.w3.org/2000/svg" xmlns:xlink="http://www.w3.org/1999/xlink"><linearGradient id="linear-gradient" gradientUnits="userSpaceOnUse" x1="24" x2="24" y1="17.864" y2="31.345"><stop offset=".0056" stop-color="#00b4ff"/><stop offset="1" stop-color="#1f7cf9"/></linearGradient><linearGradient id="linear-gradient-2" gradientUnits="userSpaceOnUse" x1="14" x2="14" y1="16" y2="10"><stop offset="0" stop-color="#1f7cf9"/><stop offset=".9944" stop-color="#00b4ff"/></linearGradient><rect fill="#f2f4f8" height="26" rx="5" width="36" x="6" y="6"/><path d="m42 18.03v8.97c0 2.76-2.24 5-5 5h-26c-2.76 0-5-2.24-5-5v-9h35c.35 0 .68.01 1 .03z" fill="url(#linear-gradient)"/><circle cx="24" cy="32" fill="#1367ce" r="10"/><circle cx="24" cy="32" fill="#f2f4f8" r="8"/><path d="m27.5 36.5c-.2559 0-.5117-.0977-.707-.293l-3.5-3.5c-.1875-.1875-.293-.4414-.293-.707v-6c0-.5527.4478-1 1-1s1 .4473 1 1v5.5859l3.207 3.207c.3906.3906.3906 1.0234 0 1.4141-.1953.1953-.4512.293-.707.293z" fill="#65676b"/><circle cx="14" cy="13" fill="url(#linear-gradient-2)" r="3"/><path d="m38 13h-16c-.5522 0-1-.4473-1-1s.4478-1 1-1h16c.5522 0 1 .4473 1 1s-.4478 1-1 1z" fill="#65676b"/></svg>