<svg id="Layer_1" height="512" viewBox="0 0 512 512" width="512" xmlns="http://www.w3.org/2000/svg" data-name="Layer 1"><circle cx="256" cy="256" fill="#ffd93b" r="254.001" transform="matrix(.997 -.072 .072 .997 -17.787 19.119)"/><path d="m308.04 183.97a37.5 37.5 0 0 1 37.5-37.5h.007a37.5 37.5 0 1 1 -37.5 37.5zm-179.08 0a37.5 37.5 0 0 1 37.5-37.5h.006a37.5 37.5 0 1 1 -37.5 37.5zm256.753 164.63a154 154 0 0 1 -259.425 0 16 16 0 0 1 26.935-17.265 122.045 122.045 0 0 0 205.554 0 16 16 0 0 1 26.936 17.265zm-129.713 131.416c123.513 0 224-100.522 224-224.016s-100.486-224.015-224-224.015-224 100.521-224 224.015 100.486 224.016 224 224.016zm0-480.016c-141.159 0-256 114.864-256 256 0 141.183 114.841 256 256 256s256-114.817 256-256c0-141.136-114.841-256-256-256z" fill-rule="evenodd"/></svg>