<svg id="Layer_1" height="512" viewBox="0 0 24 24" width="512" xmlns="http://www.w3.org/2000/svg" data-name="Layer 1"><path d="m2 9.25h3.011a3.018 3.018 0 0 0 5.853 0h11.136a.75.75 0 0 0 0-1.5h-11.136a3.018 3.018 0 0 0 -5.853 0h-3.011a.75.75 0 0 0 0 1.5zm4.408-.763a1.531 1.531 0 1 1 0 .026v-.013z"/><path d="m2 16.25h11.136a3.018 3.018 0 0 0 5.853 0h3.011a.75.75 0 0 0 0-1.5h-3.011a3.018 3.018 0 0 0 -5.853 0h-11.136a.75.75 0 0 0 0 1.5zm14.063-2.281a1.532 1.532 0 0 1 1.529 1.518v.013.013a1.531 1.531 0 1 1 -1.529-1.544z"/></svg>