<svg id="Layer_1" enable-background="new 0 0 512 512" height="512" viewBox="0 0 512 512" width="512" xmlns="http://www.w3.org/2000/svg"><g id="Layer_2_00000065075017556049499070000000165513497331853238_"><g id="celebration_firework"><path d="m49.8 470.2 206.4-84.9c5.7-2.3 7.6-9.2 4.2-15-9.6-16.2-29.8-47.7-55.4-73.3-24.8-24.8-54.9-43.8-70.6-52.9-5.7-3.3-12.5-1.3-14.8 4.3l-85 206.6c-3.7 9 6.3 18.9 15.2 15.2z" fill="#fcb424"/><path d="m261.4 379.2c-6.1 6.1-42.5-17.2-80.5-55.2s-61.3-74.5-55.3-80.6c6.1-6.1 42.7 17 80.8 55.1s61 74.7 55 80.7z" fill="#d67909"/><path d="m135.6 434.9-48.2 19.9-37.3-37.4 19.8-48.2z" fill="#ed3f03"/><path d="m223 399-48.2 19.8-88.8-88.8 19.8-48.2z" fill="#ed3f03"/><g fill="#fcb424"><circle cx="108.8" cy="116.7" r="14.8"/><path d="m108.8 39c8.2 0 14.8 6.6 14.8 14.8v27.2c0 8.2-6.6 14.8-14.8 14.8-8.1 0-14.8-6.6-14.8-14.8v-27.2c0-8.2 6.7-14.8 14.8-14.8z"/><path d="m45.9 101.9h27.2c8.2 0 14.8 6.6 14.8 14.8 0 8.2-6.6 14.8-14.8 14.8h-27.2c-8.2 0-14.8-6.6-14.8-14.8 0-8.2 6.6-14.8 14.8-14.8z"/><path d="m108.8 137.6c8.2 0 14.8 6.6 14.8 14.8v27.2c0 8.2-6.6 14.8-14.8 14.8-8.2 0-14.8-6.6-14.8-14.8v-27.2c0-8.2 6.7-14.8 14.8-14.8z"/><path d="m144.5 101.9h27.2c8.2 0 14.8 6.6 14.8 14.8 0 8.2-6.6 14.8-14.8 14.8h-27.2c-8.2 0-14.8-6.6-14.8-14.8 0-8.2 6.6-14.8 14.8-14.8z"/></g><circle cx="425" cy="387.4" fill="#00c853" r="14.8"/><path d="m425 309.7c8.2 0 14.8 6.6 14.8 14.8v27.2c0 8.2-6.6 14.8-14.8 14.8-8.2 0-14.8-6.6-14.8-14.8v-27.2c0-8.2 6.6-14.8 14.8-14.8z" fill="#00c853"/><path d="m362.1 372.6h27.2c8.2 0 14.8 6.6 14.8 14.8 0 8.2-6.6 14.8-14.8 14.8h-27.2c-8.2 0-14.8-6.6-14.8-14.8 0-8.2 6.6-14.8 14.8-14.8z" fill="#00c853"/><path d="m425 408.3c8.2 0 14.8 6.6 14.8 14.8v27.2c0 8.2-6.6 14.8-14.8 14.8-8.2 0-14.8-6.6-14.8-14.8v-27.2c0-8.2 6.6-14.8 14.8-14.8z" fill="#00c853"/><path d="m460.7 372.6h27.2c8.2 0 14.8 6.6 14.8 14.8 0 8.2-6.6 14.8-14.8 14.8h-27.2c-8.2 0-14.8-6.6-14.8-14.8 0-8.2 6.6-14.8 14.8-14.8z" fill="#00c853"/><circle cx="404.1" cy="95.8" fill="#07b7ee" r="14.8"/><path d="m404.1 18.1c8.2 0 14.8 6.6 14.8 14.8v27.2c0 8.2-6.6 14.8-14.8 14.8-8.2 0-14.8-6.6-14.8-14.8v-27.2c0-8.2 6.7-14.8 14.8-14.8z" fill="#07b7ee"/><path d="m326.4 95.8c0-8.2 6.6-14.8 14.8-14.8h27.2c8.2 0 14.8 6.6 14.8 14.8 0 8.2-6.6 14.8-14.8 14.8h-27.2c-8.1 0-14.8-6.6-14.8-14.8z" fill="#07b7ee"/><path d="m404.1 173.5c-8.2 0-14.8-6.6-14.8-14.8v-27.2c0-8.2 6.6-14.8 14.8-14.8 8.2 0 14.8 6.6 14.8 14.8v27.2c.1 8.2-6.6 14.8-14.8 14.8z" fill="#07b7ee"/><path d="m481.9 95.8c0 8.2-6.6 14.8-14.8 14.8h-27.2c-8.2 0-14.8-6.6-14.8-14.8 0-8.2 6.6-14.8 14.8-14.8h27.2c8.1 0 14.8 6.6 14.8 14.8z" fill="#07b7ee"/><path d="m167.7 303.7c-7.6-2.9-11.5-11.4-8.6-19.1 1.4-3.6 4-6.5 7.5-8.1 12.9-6.1 28.7-16.1 30.7-29.2 1.9-12.1-8.4-24.9-12.8-29-4.7-3.9-30.9-27.6-24.8-54 4.1-17.6 20.7-30.1 49.4-37 19-4.6 26.8-10.6 27.7-14.8 1.4-6.2-7.9-17.8-15-23.6-6.3-5.2-7.2-14.5-2-20.8 5.1-6.2 14.3-7.2 20.6-2.2 3.2 2.6 31.2 26.2 25.2 53-4 17.6-20.6 30-49.6 37-18.8 4.5-26.6 10.7-27.6 14.9-1.5 6.5 8.1 18.9 15.3 25l.5.4c1.1 1 26.8 24.9 22.2 55.3-3.1 20.9-19.1 38.2-47.3 51.6-3.5 1.9-7.7 2-11.4.6z" fill="#00c853"/><path d="m353.8 511c-3.5 1.3-7.3 1.4-10.9.2-7.2-2.5-10-10-6.3-16.6 6.4-11.5 12.7-27.3 6.5-36.7-5.8-8.7-21.5-10.6-27.4-10.6-6 .3-40.7 1.1-51.8-19.1-7.4-13.5-1.9-31.3 16.3-52.8 12-14.2 14.5-22.7 12.8-25.8-2.6-4.7-16.9-6.5-25.8-5.9-8 .6-14.4-4.7-14.2-11.7s6.9-13.2 14.9-13.8c4.1-.3 40-2.2 51.5 18.2 7.5 13.4 1.9 31.2-16.5 52.9-11.9 14.1-14.3 22.6-12.5 25.8 2.7 5 17.6 7 26.9 6.5h.7c1.5 0 35.8-.4 50.5 21.4 10.1 15 8.1 35.4-5.9 60.7-2.1 3.5-5.2 6-8.8 7.3z" fill="#fcb424"/><path d="m273.4 297.9c-7.9-.3-14-7-13.7-14.9.1-3.4 1.5-6.7 3.8-9.2.8-.9 20.3-21.6 56.5-39.8 21.2-10.6 43.7-18.2 67-22.6 29.9-5.5 60.5-6 90.5-1.5 7.8 1.1 13.2 8.4 12.1 16.2s-8.4 13.2-16.2 12.1c-50-7.3-96.9-.3-139.4 20.8-32 15.8-49.3 34.1-49.5 34.2-2.8 3.3-6.9 4.9-11.1 4.7z" fill="#9266cc"/><path d="m70.4 324c-1.4 0-2.8-.2-4.1-.6-7.6-2.3-11.9-10.2-9.6-17.8 5.1-17.8 8.9-36 11.6-54.4 5.2-37.6.3-56.4-5.9-61.5-5-4.1-16.7-1.7-31.9 6.5-7 3.8-15.7 1.2-19.4-5.8-3.8-7-1.2-15.7 5.8-19.4 27.1-14.7 48.5-15.9 63.6-3.6 17.1 13.9 22.4 42.7 16.1 88-2.8 19.7-7 39.2-12.5 58.3-1.8 6.1-7.4 10.3-13.7 10.3z" fill="#9266cc"/><circle cx="308.3" cy="183.6" fill="#fcb424" r="18.1"/><circle cx="290.2" cy="18.1" fill="#ed3f03" r="18.1"/><circle cx="212.3" cy="454.8" fill="#9266cc" r="20.4"/><circle cx="383.3" cy="290.5" fill="#07b7ee" r="14.2"/><circle cx="474.3" cy="36.2" fill="#9266cc" r="15.5"/></g></g></svg>