<?xml version="1.0" encoding="iso-8859-1"?>
<!-- Generator: Adobe Illustrator 19.0.0, SVG Export Plug-In . SVG Version: 6.00 Build 0)  -->
<svg version="1.1" id="Capa_1" xmlns="http://www.w3.org/2000/svg" xmlns:xlink="http://www.w3.org/1999/xlink" x="0px" y="0px"
	 viewBox="0 0 512 512" style="enable-background:new 0 0 512 512;" xml:space="preserve">
<g>
	<path style="fill:#006EFF;" d="M450.017,151.317c0.37,45.655-34.426,83.08-77.571,83.44h-0.69
		c-20.848-0.02-40.425-8.589-55.214-24.167c-14.668-15.468-22.857-36.066-23.037-57.983c-0.38-45.655,34.426-83.08,77.571-83.44
		h0.68C414.571,69.217,449.637,105.903,450.017,151.317z"/>
	<path style="fill:#006EFF;" d="M512,389.829v25.657H231.523v-25.657c0-77.331,62.913-140.244,140.234-140.244
		C449.087,249.586,512,312.498,512,389.829z"/>
</g>
<g>
	<path style="fill:#005FE4;" d="M371.756,234.757V69.167c42.815,0.05,77.881,36.736,78.261,82.15
		c0.37,45.655-34.426,83.08-77.571,83.44H371.756z"/>
	<path style="fill:#005FE4;" d="M512,389.829v25.657H371.756V249.586C449.087,249.586,512,312.498,512,389.829z"/>
</g>
<g>
	<path style="fill:#9CFDFF;" d="M256.72,151.957c0,53.244-40.855,96.549-91.079,96.549s-91.089-43.305-91.089-96.549
		c0-53.234,40.865-96.539,91.089-96.539S256.72,98.723,256.72,151.957z"/>
	<path style="fill:#9CFDFF;" d="M331.271,428.765v27.817H0v-27.817c0-91.329,74.301-165.641,165.641-165.641
		C256.97,263.124,331.271,337.435,331.271,428.765z"/>
</g>
<g>
	<path style="fill:#00F8FE;" d="M165.641,248.506V55.418c50.224,0,91.079,43.305,91.079,96.539
		C256.72,205.201,215.865,248.506,165.641,248.506z"/>
	<path style="fill:#00F8FE;" d="M331.271,428.765v27.817H165.641V263.124C256.97,263.124,331.271,337.435,331.271,428.765z"/>
</g>
<g>
</g>
<g>
</g>
<g>
</g>
<g>
</g>
<g>
</g>
<g>
</g>
<g>
</g>
<g>
</g>
<g>
</g>
<g>
</g>
<g>
</g>
<g>
</g>
<g>
</g>
<g>
</g>
<g>
</g>
</svg>
