<svg id="Gradient" viewBox="0 0 48 48" xmlns="http://www.w3.org/2000/svg" xmlns:xlink="http://www.w3.org/1999/xlink"><linearGradient id="linear-gradient" gradientUnits="userSpaceOnUse" x1="24" x2="24" y1="42" y2="6"><stop offset="0" stop-color="#ed9b14"/><stop offset="1" stop-color="#f9cd48"/></linearGradient><rect fill="url(#linear-gradient)" height="36" rx="9" width="38" x="5" y="6"/><g fill="#fff"><path d="m26 33c-.5527 0-1-.4478-1-1v-16c0-.5522.4473-1 1-1s1 .4478 1 1v16c0 .5522-.4473 1-1 1z"/><path d="m32 33c-.5527 0-1-.4478-1-1v-16c0-.5522.4473-1 1-1h6c.5527 0 1 .4478 1 1s-.4473 1-1 1h-5v15c0 .5522-.4473 1-1 1z"/><path d="m37 24h-5c-.5527 0-1-.4478-1-1s.4473-1 1-1h5c.5527 0 1 .4478 1 1s-.4473 1-1 1z"/><path d="m16 32c-4.3232 0-7-4.1528-7-8 0-4.3345 2.1904-9 7-9 4.4883 0 5.7637 2.2915 5.8945 2.5527.2471.4941.0469 1.0947-.4473 1.3418-.4883.2432-1.0781.0522-1.3311-.4268-.0557-.0942-.9199-1.4678-4.1162-1.4678-3.4355 0-5 3.6284-5 7 0 2.4199 1.5889 6 5 6 2.625 0 3.6768-.9263 4-1.3096v-3.6904c0-.5522.4473-1 1-1s1 .4478 1 1v4c0 .1553-.0361.3086-.1055.4473-.1309.2612-1.4062 2.5527-5.8945 2.5527z"/></g></svg>