<svg id="Gradient" viewBox="0 0 48 48" xmlns="http://www.w3.org/2000/svg" xmlns:xlink="http://www.w3.org/1999/xlink"><linearGradient id="linear-gradient" gradientUnits="userSpaceOnUse" x1="24" x2="24" y1="42" y2="6"><stop offset="0" stop-color="#0064e1"/><stop offset=".9944" stop-color="#26b7ff"/></linearGradient><path d="m42 24c0 5.02-2.12 9.85-5.82 13.25-3.33 3.06-7.66 4.75-12.18 4.75s-8.85-1.69-12.18-4.75c-3.7-3.4-5.82-8.23-5.82-13.25 0-9.93 8.07-18 18-18 9.92 0 18 8.07 18 18z" fill="url(#linear-gradient)"/><g fill="#fff"><path d="m26 23h-3.9047c-3.308 0-5.9896 2.6817-5.9896 5.9896l-.0919 2.0138c0 1.1027.8939 1.9965 1.9965 1.9965h11.9793c1.1027 0 1.9965-.8939 1.9965-1.9965l.0919-1.9254c0-3.3568-2.7212-6.0781-6.0781-6.0781z"/><path d="m10 28.73v.72c0 .85.7 1.55 1.55 1.55h1.92c-.09-.32-.1299-.65-.1299-1v-.93c0-1.92.67-3.68 1.79-5.07h-.4c-2.61 0-4.73 2.12-4.73 4.73z"/><path d="m38 28.73v.72c0 .85-.7 1.55-1.55 1.55h-1.92c.09-.32.1299-.65.1299-1v-.93c0-1.92-.67-3.68-1.79-5.07h.4c2.61 0 4.73 2.12 4.73 4.73z"/><ellipse cx="24" cy="16.5" rx="4" ry="4.5"/><ellipse cx="32.5" cy="19" rx="2.5" ry="3"/><ellipse cx="15.5" cy="19" rx="2.5" ry="3"/></g></svg>