<svg id="Layer_1" height="512" viewBox="0 0 512 512" width="512" xmlns="http://www.w3.org/2000/svg" data-name="Layer 1"><circle cx="256" cy="256" fill="#2196f3" r="256"/><path d="m366.624 128.724a41.887 41.887 0 1 1 -27.3 73.667l-.073.09c.091-1.595.139-3.207.139-4.819a82.832 82.832 0 0 0 -11.7-42.541 41.865 41.865 0 0 1 38.931-26.4zm73.6 154.43v30.2h-63.542a123.136 123.136 0 0 0 -13.6-34.482 124.545 124.545 0 0 0 -35.362-38.7 82.968 82.968 0 0 0 5.2-10.279 68.1 68.1 0 0 0 76.8-6.456 73.6 73.6 0 0 1 30.51 59.531v.188zm-86.709 58c0-.05 0-.1 0-.14a98 98 0 0 0 -42.715-80.564 83.179 83.179 0 0 1 -109.5 0 98.086 98.086 0 0 0 -42.722 80.574v.132 42.121h194.939v-42.121zm-218.1-27.8h-63.639v-30.2c0-.049 0-.114 0-.172a73.6 73.6 0 0 1 30.51-59.547 68.1 68.1 0 0 0 76.891 6.406 82.747 82.747 0 0 0 5.213 10.329 123.456 123.456 0 0 0 -48.971 73.182zm9.96-184.628a41.864 41.864 0 0 1 38.971 26.505 82.773 82.773 0 0 0 -11.646 42.431c0 1.661.058 3.314.157 4.951l-.2-.222a41.888 41.888 0 1 1 -27.285-73.667zm110.675 11.906a57.031 57.031 0 1 1 -57.032 57.03 57.092 57.092 0 0 1 57.032-57.03z" fill="#fff" fill-rule="evenodd"/></svg>