<svg id="Gradient" viewBox="0 0 48 48" xmlns="http://www.w3.org/2000/svg" xmlns:xlink="http://www.w3.org/1999/xlink"><radialGradient id="radial-gradient" cx="24.072" cy="13.359" gradientUnits="userSpaceOnUse" r="25.433"><stop offset=".0056" stop-color="#feeb72"/><stop offset=".3156" stop-color="#fde86f"/><stop offset=".5153" stop-color="#fcdf68"/><stop offset=".6839" stop-color="#fbd05c"/><stop offset=".8352" stop-color="#f9bb4b"/><stop offset=".9737" stop-color="#f6a134"/><stop offset="1" stop-color="#f69b30"/></radialGradient><linearGradient id="linear-gradient" gradientUnits="userSpaceOnUse" x1="24" x2="24" y1="37.5" y2="21.75"><stop offset="0" stop-color="#8b3a0e"/><stop offset="1" stop-color="#472315"/></linearGradient><linearGradient id="linear-gradient-2" gradientUnits="userSpaceOnUse" x1="24.009" x2="24.009" y1="37.5" y2="30.75"><stop offset="0" stop-color="#d91f3a"/><stop offset="1" stop-color="#f85874"/></linearGradient><linearGradient id="linear-gradient-3" gradientUnits="userSpaceOnUse" x1="24.001" x2="24.001" y1="19.5" y2="12.748"><stop offset=".0056" stop-color="#3c466e"/><stop offset="1" stop-color="#252949"/></linearGradient><path d="m42 24c0 9.9405-8.0594 18-17.9999 18s-18.0001-8.0595-18.0001-18 8.0595-18 18-18 17.9999 8.0595 17.9999 18" fill="url(#radial-gradient)"/><path d="m12.75 24.018c0 4.5337 2.2679 13.482 11.25 13.482s11.2499-8.9483 11.2499-13.482c0-.36-3.6202-2.268-11.2499-2.268s-11.25 1.908-11.25 2.268z" fill="url(#linear-gradient)"/><path d="m16.2127 34.125c1.8113 2.2409 4.2976 3.375 7.8143 3.375 3.5145 0 5.967-1.1341 7.7783-3.375-1.2397-1.3275-3.5956-3.375-7.7783-3.375-4.194 0-6.5655 2.0475-7.8143 3.375z" fill="url(#linear-gradient-2)"/><path d="m19.9838 15.3263c.5895.4207 1.1249 1.0192.9135 1.7752-.1576.5715-.4298.8258-.9495.8258-1.7483.0247-3.8408.5805-5.634 1.3793-.1485.0698-.4478.2025-.7471.1935-.2812-.0091-.5625-.1328-.7379-.5355-.1485-.3533-.1576-.8707.6233-1.3455 1.2217-.738 2.8304-1.08 4.2996-1.3545-.9246-.684-1.9169-1.2645-2.9632-1.7302-.9586-.4388-.8528-1.0283-.729-1.3545.2902-.711 1.3702-.4388 2.4254.063 1.2307.5715 2.4008 1.2735 3.4988 2.0836zm8.0414 0c1.0891-.81 2.2591-1.5121 3.4898-2.0836 1.0552-.5018 2.1352-.7741 2.4255-.063.1327.3263.2363.9158-.7291 1.3545-1.0462.4657-2.0317 1.0462-2.9542 1.7302 1.4693.2746 3.069.6165 4.2908 1.3545.7897.4747.7717.9922.6233 1.3455-.1755.4027-.4568.5265-.738.5355-.2993.009-.5985-.1237-.747-.1935-1.7933-.7988-3.8767-1.3455-5.634-1.3703-.5107-.009-.792-.2633-.9496-.8348-.2025-.7469.333-1.3545.9225-1.7752z" fill="url(#linear-gradient-3)"/></svg>