<?xml version="1.0" encoding="UTF-8"?>
<svg xmlns="http://www.w3.org/2000/svg" xmlns:xlink="http://www.w3.org/1999/xlink" width="18px" height="18px" viewBox="0 0 18 18" version="1.1">
<defs>
<linearGradient id="linear0" gradientUnits="userSpaceOnUse" x1="8" y1="1.64" x2="8" y2="16" gradientTransform="matrix(1.125,0,0,1.125,0,0)">
<stop offset="0" style="stop-color:rgb(99.607843%,91.764706%,43.921569%);stop-opacity:1;"/>
<stop offset="1" style="stop-color:rgb(96.470588%,60.784314%,18.823529%);stop-opacity:1;"/>
</linearGradient>
<linearGradient id="linear1" gradientUnits="userSpaceOnUse" x1="8" y1="7" x2="8" y2="14" gradientTransform="matrix(1.125,0,0,1.125,0,0)">
<stop offset="0" style="stop-color:rgb(27.843137%,13.72549%,8.235294%);stop-opacity:1;"/>
<stop offset="1" style="stop-color:rgb(54.509804%,22.745098%,5.490196%);stop-opacity:1;"/>
</linearGradient>
<linearGradient id="linear2" gradientUnits="userSpaceOnUse" x1="8.005" y1="11" x2="8.005" y2="13.457" gradientTransform="matrix(1.125,0,0,1.125,0,0)">
<stop offset="0" style="stop-color:rgb(98.823529%,37.647059%,48.627451%);stop-opacity:1;"/>
<stop offset="1" style="stop-color:rgb(85.098039%,12.156863%,22.745098%);stop-opacity:1;"/>
</linearGradient>
</defs>
<g id="surface1">
<path style=" stroke:none;fill-rule:nonzero;fill:url(#linear0);" d="M 18 9 C 18 13.972656 13.96875 18 9 18 C 4.027344 18 0 13.972656 0 9 C 0 4.027344 4.027344 0 9 0 C 13.96875 0 18 4.027344 18 9 "/>
<path style=" stroke:none;fill-rule:nonzero;fill:url(#linear1);" d="M 3.375 9.007812 C 3.375 11.277344 4.507812 15.75 9 15.75 C 13.492188 15.75 14.625 11.277344 14.625 9.007812 C 14.625 8.832031 12.8125 7.875 9 7.875 C 5.1875 7.875 3.375 8.832031 3.375 9.007812 Z M 3.375 9.007812 "/>
<path style=" stroke:none;fill-rule:nonzero;fill:url(#linear2);" d="M 5.109375 14.0625 C 6.011719 15.183594 7.253906 15.75 9.011719 15.75 C 10.769531 15.75 12 15.183594 12.902344 14.0625 C 12.28125 13.402344 11.105469 12.375 9.011719 12.375 C 6.917969 12.375 5.730469 13.402344 5.109375 14.0625 Z M 5.109375 14.0625 "/>
<path style=" stroke:none;fill-rule:nonzero;fill:rgb(16.470588%,21.568627%,33.333333%);fill-opacity:1;" d="M 6.988281 4.660156 C 7.285156 4.875 7.554688 5.175781 7.449219 5.546875 C 7.371094 5.835938 7.234375 5.964844 6.976562 5.964844 C 6.097656 5.976562 5.054688 6.253906 4.15625 6.65625 C 4.082031 6.6875 3.933594 6.753906 3.785156 6.75 C 3.644531 6.746094 3.5 6.683594 3.414062 6.484375 C 3.339844 6.308594 3.332031 6.046875 3.726562 5.8125 C 4.339844 5.4375 5.140625 5.269531 5.875 5.132812 C 5.414062 4.789062 4.917969 4.5 4.394531 4.265625 C 3.914062 4.050781 3.964844 3.753906 4.03125 3.59375 C 4.171875 3.234375 4.714844 3.371094 5.242188 3.621094 C 5.859375 3.910156 6.445312 4.257812 6.988281 4.660156 Z M 11.015625 4.660156 C 11.558594 4.257812 12.144531 3.910156 12.757812 3.621094 C 13.285156 3.371094 13.828125 3.234375 13.96875 3.59375 C 14.035156 3.753906 14.085938 4.050781 13.605469 4.265625 C 13.085938 4.5 12.589844 4.789062 12.128906 5.132812 C 12.859375 5.269531 13.664062 5.4375 14.273438 5.8125 C 14.667969 6.046875 14.660156 6.304688 14.585938 6.484375 C 14.5 6.6875 14.355469 6.746094 14.21875 6.75 C 14.066406 6.753906 13.917969 6.6875 13.84375 6.65625 C 12.949219 6.253906 11.902344 5.980469 11.027344 5.964844 C 10.769531 5.964844 10.632812 5.835938 10.550781 5.550781 C 10.449219 5.175781 10.71875 4.875 11.015625 4.664062 Z M 11.015625 4.660156 "/>
</g>
</svg>
