<svg height="512" viewBox="0 0 64 64" width="512" xmlns="http://www.w3.org/2000/svg"><circle cx="32" cy="32" fill="#ffcd00" r="32"/><g fill-rule="evenodd"><path d="m32 64a16 16 0 0 1 -16-16 16 16 0 0 1 16-16h32a32 32 0 0 1 -32 32z" fill="#ffb400"/><path d="m32 0a16 16 0 0 1 16 16 16 16 0 0 1 -16 16h-32a32 32 0 0 1 32-32z" fill="#ffeb00"/><path d="m12 32.002 40-.002a19.9515 19.9515 0 0 1 -6.77 14.9992h-26.4609q-.4679-.4126-.9118-.8565a19.9977 19.9977 0 0 1 -5.8573-14.1407z" fill="#46321e"/><path d="m18.7691 46.9992a15.9809 15.9809 0 0 1 13.2289-6.9992h.004a15.9813 15.9813 0 0 1 13.2286 6.9986 19.9237 19.9237 0 0 1 -13.2306 5.0014h-.002a19.9979 19.9979 0 0 1 -13.2289-5.0008z" fill="#c8005a"/></g><path d="m55.217 22.142-3.217 9.902-8.423-6.119h-10.412l3.218-9.903-3.218-9.901h10.412l8.423-6.121 3.217 9.903 8.423 6.119z" fill="#ff961e"/><path d="m8.783 22.142 3.217 9.902 8.423-6.119h10.413l-3.219-9.903 3.219-9.901h-10.413l-8.423-6.121-3.217 9.903-8.423 6.119z" fill="#ff961e"/></svg>