<svg id="Layer_1" enable-background="new 0 0 464 464" height="512" viewBox="0 0 464 464" width="512" xmlns="http://www.w3.org/2000/svg"><g><g><path d="m403.626 183.447s47.741 4.389 58.032 63.222c12.574 71.883-29.574 89.812-29.574 89.812s-27.986-62.919-28.458-69.996 0-83.038 0-83.038z" fill="#404077"/><path d="m156.228 448.65c47.443-8.752 76.554-66.527 65.021-129.045-11.532-62.518-59.341-106.104-106.784-97.353l-48.411 5.897 37.484 227.045z" fill="#c5c5fe"/><ellipse cx="93.657" cy="341.994" fill="#a3a3f5" rx="87.352" ry="115.109" transform="matrix(.983 -.181 .181 .983 -60.486 22.664)"/><path d="m420.36 200.109-18.82 36.03-79.19-68.41c15.93-96.96-56.97-122.31-76.06-127.23-178.14-5.64-117.29 271.13-117.29 271.13l-100.12-37.78c-19.47-176.48 72-280.85 222.34-264.48 79.97 8.7 122.72 62.11 145.23 110.2 19.79 42.33 23.91 80.54 23.91 80.54z" fill="#52528c"/><path d="m420.36 200.109-18.82 36.03-79.19-68.41c15.93-96.96-56.97-122.31-76.06-127.23 20.85.65 44.99 5.18 72.87 14.47 0 0 41.45 7.4 77.29 64.6 19.79 42.33 23.91 80.54 23.91 80.54z" fill="#404077"/><path d="m2.451 355.114c9.984 54.132 48.563 94.535 87.35 87.397 38.056-7.02 60.627-57.523 50.427-112.809-10.191-55.286-49.304-94.408-87.35-87.388-15.947 2.944-29.176 13.522-38.414 28.893-12.806 21.299-17.939 51.796-12.013 83.907z" fill="#404077"/><path d="m2.451 355.114c7.983 43.283 33.678 76.659 62.722 85.737.623-.085 1.255-.189 1.878-.302 35.565-6.568 57.051-51.691 47.992-100.787-9.059-49.106-45.227-83.595-80.792-77.037-7.219 1.331-13.862 4.256-19.788 8.483-12.805 21.298-17.938 51.795-12.012 83.906z" fill="#52528c"/><path d="m383.503 382.836c45.612-8.414 73.6-63.96 62.512-124.066s-57.052-102.01-102.664-93.596l-46.543 5.669 36.038 218.284z" fill="#a3a3f5"/><ellipse cx="312.77" cy="280.296" fill="#c5c5fe" rx="83.981" ry="110.667" transform="matrix(.983 -.181 .181 .983 -45.658 61.389)"/><g><path d="m350.3 297.479c-2.833 58.501-61.808 59.922-72.65 6.13-3.41-16.87-1.7-32.86 2.24-46.87 23.897-35.998 73.084-14.4 70.41 40.74z" fill="#52528c"/></g></g><path d="m324 203.499c.3 3.33-17.19 8.95-24.59 37.26-7.22 2.48-14.03 7.71-19.52 15.98-3.94 14.01-5.65 30-2.24 46.87 1.81 8.98 4.96 16.42 8.97 22.31-15.45 14.77-42.18-4.06-40.33-60.92 2.71-83.5 74.71-95 77.71-61.5z" fill="#d7d7ff"/><g fill="#6767a3"><path d="m296.81 283.499c1.82 21.22-2.95 35.51-10.19 42.42-4.01-5.89-7.16-13.33-8.97-22.31-3.41-16.87-1.7-32.86 2.24-46.87 5.49-8.27 12.3-13.5 19.52-15.98-2.8 10.66-4.16 24.55-2.6 42.74z"/><path d="m144.913 53.999s-37.413 24.5-54.413 119-72.5 43-29.5-52 83.913-67 83.913-67z"/><path d="m45.015 302.999s52.261 33.252 32.985 86.128-68.5-8.788-62.5-63.208 29.515-22.92 29.515-22.92z"/></g></g></svg>