<svg height="512" viewBox="0 0 128 128" width="512" xmlns="http://www.w3.org/2000/svg"><g><path d="m64 7a57 57 0 1 0 57 57 57 57 0 0 0 -57-57zm0 84.972a27.972 27.972 0 1 1 27.972-27.972 27.971 27.971 0 0 1 -27.972 27.972z" fill="#fa415b"/><g fill="#edf5ff"><path d="m35.908 14.392a57.274 57.274 0 0 0 -21.516 21.516l25.263 14.306a28.123 28.123 0 0 1 10.559-10.559z"/><path d="m92.092 113.608a57.274 57.274 0 0 0 21.516-21.516l-25.263-14.306a28.123 28.123 0 0 1 -10.559 10.559z"/><path d="m113.608 35.908a57.274 57.274 0 0 0 -21.516-21.516l-14.306 25.263a28.123 28.123 0 0 1 10.559 10.559z"/><path d="m14.392 92.092a57.274 57.274 0 0 0 21.516 21.516l14.306-25.263a28.123 28.123 0 0 1 -10.559-10.559z"/></g></g></svg>