<svg id="SVGRoot" height="512" viewBox="0 0 512 512" width="512" xmlns="http://www.w3.org/2000/svg" xmlns:svg="http://www.w3.org/2000/svg"><g id="g5139" style="clip-rule:evenodd;fill-rule:evenodd;stroke-width:22;stroke-linecap:round;stroke-linejoin:round;stroke-miterlimit:10" transform="translate(-1.25 8.666)"><path id="path5108" d="m50.933816 81.59375c-27.335365 0-49.683816 22.3504-49.683816 49.68577v232.11041c0 27.33536 22.348451 49.68382 49.683816 49.68382h232.112364c27.33536 0 49.68382-22.34846 49.68382-49.68382v-232.11041c0-27.33537-22.34846-49.68577-49.68382-49.68577z" fill="#ef5350"/><path id="path5111" d="m261.04688 81.59375c27.33533 0 49.68359 22.3502 49.68359 49.68555v232.11132c0 27.33534-22.34826 49.6836-49.68359 49.6836h22c27.33533 0 49.68359-22.34826 49.68359-49.6836v-232.11132c0-27.33535-22.34826-49.68555-49.68359-49.68555z" fill="#f44336"/><path id="path5114" d="m167.02344 174.24805c-15.42969.12356-30.82016 5.05011-43.77149 14.76367l-48.462888 36.34766c-14.411708 10.80903-14.411913 33.13068 0 43.93945l48.460938 36.3457c25.85652 19.39157 61.62388 19.11213 87.17383-.68164l49.10937-38.04492c14.24192-11.03194 13.89128-33.35427-.6914-43.93164a11.0011 11.0011 0 0 0 -.002 0l-47.8125-34.67578c-13.10522-9.50489-28.57422-14.18607-44.0039-14.0625z" fill="#ffebee"/><path id="path5117" d="m167.02344 174.24805c-3.44584.0276-6.88559.33138-10.30078.83789 11.4191 1.72676 22.52063 6.12848 32.30468 13.22461l47.8125 34.67578a11.0011 11.0011 0 0 0 .002 0c14.58266 10.57736 14.93331 32.89971.6914 43.93164l-49.10937 38.04492c-9.9006 7.67008-21.33888 12.37326-33.13672 14.17383 19.08888 2.96802 39.1197-1.76531 55.13672-14.17383l49.10937-38.04492c14.24191-11.03193 13.89126-33.35428-.6914-43.93164a11.0011 11.0011 0 0 0 -.002 0l-47.8125-34.67578c-13.1052-9.50488-28.57424-14.18607-44.0039-14.0625z" fill="#ffcdd2"/><path id="path5120" d="m166.99062 210.53906c-20.18702 0-36.7875 16.60004-36.7875 36.78653s16.60048 36.78847 36.7875 36.78847c20.18703 0 36.7875-16.60198 36.7875-36.78847s-16.60047-36.78653-36.7875-36.78653z" fill="#ef5350"/><path id="path5123" d="m166.99023 210.53906c-3.8255 0-7.52065.59747-11 1.70117 14.88105 4.72045 25.78711 18.72483 25.78711 35.08594s-10.90606 30.36501-25.78711 35.08594c3.47935 1.10381 7.1745 1.70117 11 1.70117 20.18701 0 36.78711-16.60064 36.78711-36.78711s-16.6001-36.78711-36.78711-36.78711z" fill="#f44336"/><path id="path5126" d="m486.62305 93.632812c-4.57092-.08056-9.2291 1.042928-13.5293 3.623047l-83.33789 50.001951c-17.01915 10.21149-27.4529 28.64272-27.45117 48.49024l.008 103.1582c.002 19.84721 10.43863 38.2781 27.45703 48.49023l83.32422 50c17.20023 10.32155 40.1564-2.67488 40.15625-22.73437v-254.67188c-.00005-15.04455-12.91421-26.115737-26.62695-26.357418z" fill="#e0e0e0"/><path id="path5129" d="m486.62305 93.632812c-3.78426-.06669-7.61636.749381-11.26758 2.476563 9.02616 4.090585 15.89449 12.918505 15.89453 23.880855v254.67188c.00008 10.96559-6.87659 19.78607-15.90625 23.875 16.88529 7.99754 37.90638-4.67413 37.90625-23.875v-254.67188c-.00006-15.04453-12.91423-26.115737-26.62695-26.357418z" fill="#bdbdbd"/></g></svg>