<svg height="512" viewBox="0 0 152 152" width="512" xmlns="http://www.w3.org/2000/svg"><g id="Layer_2" data-name="Layer 2"><g id="Color"><g id="_07.Love" data-name="07.Love"><g id="Background"><circle cx="76" cy="76" fill="#eb2540" r="76"/></g><g id="_05.Love" data-name="05.Love"><path d="m111.94 84.91c-5.43 6.54-13.24 13.19-22.27 20.9-3.07 2.62-6.58 5.6-10.21 8.77a5.25 5.25 0 0 1 -6.92 0c-3.63-3.17-7.14-6.15-10.21-8.77-9-7.71-16.84-14.36-22.27-20.9-6.06-7.31-8.89-14.27-8.89-21.83a28 28 0 0 1 7.11-19.14 24.12 24.12 0 0 1 17.94-7.82 22.48 22.48 0 0 1 14.08 4.88 28.31 28.31 0 0 1 5.7 5.94 28.83 28.83 0 0 1 5.7-5.94 22.48 22.48 0 0 1 14.08-4.88 24.08 24.08 0 0 1 17.93 7.82 28 28 0 0 1 7.12 19.14c0 7.56-2.83 14.52-8.89 21.83z" fill="#fff"/></g></g></g></g></svg>