<svg height="511pt" viewBox="0 -19 511.99844 511" width="511pt" xmlns="http://www.w3.org/2000/svg"><path d="m289.71875 10.503906c-13.234375 0-25.167969 6.082032-33.597656 15.832032-8.433594-9.75-20.367188-15.832032-33.601563-15.832032-25.546875 0-46.253906 22.65625-46.253906 50.605469 0 39.148437 79.855469 93.445313 79.855469 93.445313s79.851562-54.296876 79.851562-93.445313c0-27.949219-20.707031-50.605469-46.253906-50.605469zm0 0" fill="#ff5d5d"/><path d="m286.164062 324.445312c0 76.242188-61.804687 138.050782-138.050781 138.050782-76.242187 0-138.046875-61.808594-138.046875-138.050782 0-76.242187 61.804688-138.046874 138.046875-138.046874 76.246094 0 138.050781 61.804687 138.050781 138.046874zm0 0" fill="#ffc36e"/><path d="m501.929688 324.445312c0 76.242188-61.804688 138.050782-138.046876 138.050782-76.242187 0-138.050781-61.808594-138.050781-138.050782 0-76.242187 61.808594-138.046874 138.050781-138.046874 76.242188 0 138.046876 61.804687 138.046876 138.046874zm0 0" fill="#ffc36e"/><path d="m209.398438 129.855469c20.28125 18.761719 40.253906 32.402343 41.09375 32.972656 1.699218 1.152344 3.664062 1.730469 5.625 1.730469 1.964843 0 3.929687-.578125 5.625-1.730469.84375-.570313 20.816406-14.210937 41.097656-32.972656 28.621094-26.480469 43.136718-49.609375 43.136718-68.746094 0-33.421875-25.238281-60.609375-56.257812-60.609375-12.148438 0-23.957031 4.285156-33.597656 12-9.644532-7.714844-21.453125-12-33.601563-12-31.019531 0-56.257812 27.1875-56.257812 60.609375 0 19.136719 14.515625 42.265625 43.136719 68.746094zm13.121093-109.347657c9.886719 0 19.132813 4.390626 26.035157 12.367188 1.898437 2.199219 4.660156 3.460938 7.5625 3.460938 2.90625 0 5.667968-1.261719 7.566406-3.460938 6.898437-7.976562 16.148437-12.367188 26.035156-12.367188 19.988281 0 36.25 18.210938 36.25 40.601563 0 23.089844-40.71875 60.3125-69.851562 81.234375-29.132813-20.921875-69.847657-58.144531-69.847657-81.234375 0-22.390625 16.261719-40.601563 36.25-40.601563zm0 0"/><path d="m106.191406 285.75c.242188-.902344 1.167969-1.4375 2.070313-1.195312.898437.238281 1.433593 1.167968 1.195312 2.070312-1.429687 5.335938 1.734375 10.820312 7.070313 12.25.867187.230469 1.738281.34375 2.597656.34375 4.414062 0 8.457031-2.949219 9.65625-7.417969 3.09375-11.554687-3.789062-23.476562-15.34375-26.574219-11.554688-3.097656-23.476562 3.785157-26.574219 15.339844-1.429687 5.339844 1.738281 10.824219 7.074219 12.253906 5.339844 1.429688 10.824219-1.734374 12.253906-7.070312zm0 0"/><path d="m173.285156 353.789062c-5.335937-1.429687-10.824218 1.738282-12.253906 7.074219-3.402344 12.703125-16.507812 20.273438-29.210938 16.867188-12.703124-3.40625-20.269531-16.507813-16.867187-29.214844 1.433594-5.335937-1.734375-10.820313-7.074219-12.25-5.332031-1.429687-10.820312 1.734375-12.25 7.074219-6.257812 23.359375 7.652344 47.453125 31.011719 53.714844 3.789063 1.015624 7.59375 1.5 11.34375 1.5 19.363281 0 37.128906-12.941407 42.375-32.511719 1.429687-5.335938-1.738281-10.820313-7.074219-12.253907zm0 0"/><path d="m506.890625 286.128906c-9.347656-34.894531-31.058594-65.09375-61.132813-85.035156-4.601562-3.054688-10.8125-1.796875-13.867187 2.804688-3.050781 4.605468-1.792969 10.8125 2.808594 13.867187 26.003906 17.246094 44.78125 43.363281 52.867187 73.539063 8.851563 33.039062 4.308594 67.542968-12.792968 97.164062-17.101563 29.621094-44.714844 50.808594-77.75 59.660156-33.039063 8.851563-67.542969 4.308594-97.164063-12.792968-29.621094-17.097657-50.808594-44.710938-59.660156-77.75-8.851563-33.035157-4.308594-67.542969 12.792969-97.160157 17.101562-29.621093 44.710937-50.808593 77.75-59.660156 10.773437-2.890625 21.835937-4.367187 32.878906-4.398437 5.523437-.015626 9.988281-4.507813 9.976562-10.03125-.015625-5.523438-4.539062-10.011719-10.03125-9.976563-12.773437.035156-25.554687 1.746094-38 5.078125-27.042968 7.246094-50.929687 21.644531-69.597656 41.582031-18.824219-20.074219-42.667969-34.382812-69.53125-41.582031-78.859375-21.125-160.199219 25.835938-181.328125 104.691406-10.234375 38.199219-4.984375 78.09375 14.789063 112.34375 19.773437 34.25 51.699218 58.746094 89.898437 68.980469 12.601563 3.378906 25.410156 5.015625 38.117187 5.015625 40.429688 0 79.808594-16.601562 108.050782-46.570312 9.800781 10.398437 21.171875 19.421874 33.894531 26.765624 22.8125 13.171876 48.128906 19.898438 73.785156 19.898438 12.855469 0 25.804688-1.691406 38.558594-5.109375 38.199219-10.234375 70.125-34.730469 89.898437-68.980469 19.769532-34.25 25.023438-74.148437 14.789063-112.34375zm-391.917969 162c-33.035156-8.851562-60.648437-30.039062-77.75-59.660156-17.097656-29.621094-21.640625-64.125-12.789062-97.164062 18.273437-68.199219 88.621094-108.816407 156.824218-90.539063 24.101563 6.457031 45.398438 19.523437 61.9375 37.910156-2.671874 3.773438-5.1875 7.6875-7.53125 11.742188-9.101562 15.765625-15.117187 32.730469-17.972656 50.175781-2.699218-5.28125-7.53125-9.449219-13.699218-11.101562-5.601563-1.503907-11.445313-.730469-16.464844 2.167968-5.019532 2.894532-8.609375 7.574219-10.109375 13.171875-1.429688 5.335938 1.734375 10.824219 7.074219 12.253907 5.332031 1.429687 10.820312-1.738282 12.25-7.074219.152343-.558594.511718-.867188.789062-1.027344s.722656-.316406 1.28125-.167969c.902344.242188 1.4375 1.167969 1.195312 2.070313-1.429687 5.335937 1.738282 10.824219 7.074219 12.25.867188.234375 1.738281.34375 2.597657.34375 2.246093 0 4.398437-.765625 6.125-2.109375-.265626 13.792968 1.402343 27.703125 5.070312 41.394531 4.636719 17.308594 12.210938 33.320313 22.289062 47.507813-32.070312 35.449218-81.765624 50.292968-128.191406 37.855468zm0 0"/><path d="m400.761719 201.804688.285156.085937c.976563.300781 1.960937.441406 2.933594.441406 4.28125 0 8.242187-2.769531 9.558593-7.074219 1.621094-5.285156-1.351562-10.878906-6.632812-12.496093l-.367188-.109375c-5.289062-1.597656-10.871093 1.394531-12.464843 6.6875-1.597657 5.289062 1.394531 10.871094 6.6875 12.464844zm0 0"/><path d="m313.183594 308.816406c.902344-.242187 1.832031.296875 2.070312 1.195313 1.429688 5.335937 6.914063 8.503906 12.253906 7.074219 5.335938-1.429688 8.503907-6.917969 7.074219-12.253907-3.097656-11.554687-15.019531-18.4375-26.574219-15.339843-11.558593 3.09375-18.4375 15.015624-15.34375 26.574218 1.199219 4.46875 5.242188 7.417969 9.65625 7.417969.859376 0 1.730469-.113281 2.597657-.34375 5.335937-1.429687 8.503906-6.917969 7.074219-12.253906-.242188-.902344.292968-1.828125 1.191406-2.070313zm0 0"/><path d="m392.871094 299.21875c.855468 0 1.730468-.109375 2.59375-.34375 5.339844-1.429688 8.503906-6.914062 7.074218-12.25-.238281-.902344.296876-1.832031 1.195313-2.070312.558594-.148438 1.007813.007812 1.285156.167968.273438.160156.636719.46875.785157 1.027344 1.429687 5.335938 6.914062 8.503906 12.253906 7.074219 5.335937-1.429688 8.503906-6.917969 7.074218-12.253907-1.503906-5.597656-5.089843-10.277343-10.109374-13.175781-5.023438-2.898437-10.867188-3.667969-16.464844-2.167969-11.558594 3.097657-18.441406 15.019532-15.34375 26.574219 1.199218 4.46875 5.238281 7.417969 9.65625 7.417969zm0 0"/><path d="m350.964844 360.863281c-1.429688-5.335937-6.917969-8.503906-12.253906-7.074219-5.335938 1.433594-8.503907 6.917969-7.074219 12.253907 5.246093 19.574219 23.011719 32.511719 42.375 32.511719 3.746093 0 7.554687-.484376 11.34375-1.5 23.359375-6.257813 37.269531-30.355469 31.011719-53.714844-1.429688-5.335938-6.914063-8.503906-12.25-7.074219-5.339844 1.429687-8.503907 6.917969-7.074219 12.253906 3.402343 12.703125-4.164063 25.808594-16.867188 29.210938-12.703125 3.40625-25.808593-4.160157-29.210937-16.867188zm0 0"/><path d="m448.1875 48.328125c5.523438 0 10.003906-4.476563 10.003906-10.003906v-13.816407c0-5.523437-4.480468-10.003906-10.003906-10.003906s-10.003906 4.480469-10.003906 10.003906v13.816407c0 5.527343 4.480468 10.003906 10.003906 10.003906zm0 0"/><path d="m448.1875 114.539062c5.523438 0 10.003906-4.476562 10.003906-10.003906v-13.816406c0-5.523438-4.480468-10-10.003906-10s-10.003906 4.476562-10.003906 10v13.816406c0 5.527344 4.480468 10.003906 10.003906 10.003906zm0 0"/><path d="m474.386719 74.527344h13.816406c5.523437 0 10.003906-4.480469 10.003906-10.003906 0-5.527344-4.480469-10.003907-10.003906-10.003907h-13.816406c-5.527344 0-10.003907 4.476563-10.003907 10.003907 0 5.523437 4.476563 10.003906 10.003907 10.003906zm0 0"/><path d="m408.171875 74.527344h13.816406c5.527344 0 10.003907-4.480469 10.003907-10.003906 0-5.527344-4.476563-10.003907-10.003907-10.003907h-13.816406c-5.523437 0-10.003906 4.476563-10.003906 10.003907 0 5.523437 4.480469 10.003906 10.003906 10.003906zm0 0"/><path d="m64.050781 48.328125c5.523438 0 10.003907-4.476563 10.003907-10.003906v-13.816407c0-5.523437-4.480469-10.003906-10.003907-10.003906-5.527343 0-10.003906 4.480469-10.003906 10.003906v13.816407c0 5.527343 4.476563 10.003906 10.003906 10.003906zm0 0"/><path d="m64.050781 114.539062c5.523438 0 10.003907-4.476562 10.003907-10.003906v-13.816406c0-5.523438-4.480469-10-10.003907-10-5.527343 0-10.003906 4.476562-10.003906 10v13.816406c0 5.527344 4.476563 10.003906 10.003906 10.003906zm0 0"/><path d="m90.25 74.527344h13.8125c5.527344 0 10.003906-4.480469 10.003906-10.003906 0-5.527344-4.476562-10.003907-10.003906-10.003907h-13.8125c-5.527344 0-10.003906 4.476563-10.003906 10.003907 0 5.523437 4.476562 10.003906 10.003906 10.003906zm0 0"/><path d="m24.035156 74.527344h13.816406c5.523438 0 10.003907-4.480469 10.003907-10.003906 0-5.527344-4.480469-10.003907-10.003907-10.003907h-13.816406c-5.523437 0-10.003906 4.476563-10.003906 10.003907 0 5.523437 4.480469 10.003906 10.003906 10.003906zm0 0"/></svg>