<svg viewBox="0 0 48 48" xmlns="http://www.w3.org/2000/svg" xmlns:xlink="http://www.w3.org/1999/xlink"><linearGradient id="linear-gradient" gradientUnits="userSpaceOnUse" x1="23.75" x2="23.75" y1="22.883" y2="33.426"><stop offset="0" stop-color="#8b3a0e"/><stop offset="1" stop-color="#472315"/></linearGradient><linearGradient id="linear-gradient-2" gradientUnits="userSpaceOnUse" x1="23.98" x2="23.98" y1="34.75" y2="27"><stop offset="0" stop-color="#d91f3a"/><stop offset="1" stop-color="#f85874"/></linearGradient><linearGradient id="lg1"><stop offset=".0056" stop-color="#feeb72"/><stop offset=".3156" stop-color="#fde86f"/><stop offset=".5153" stop-color="#fcdf68"/><stop offset=".6839" stop-color="#fbd05c"/><stop offset=".8352" stop-color="#f9bb4b"/><stop offset=".9737" stop-color="#f6a134"/><stop offset="1" stop-color="#f69b30"/></linearGradient><radialGradient id="radial-gradient" cx="24" cy="24" gradientUnits="userSpaceOnUse" r="18" xlink:href="#lg1"/><radialGradient id="radial-gradient-2" cx="24.663" cy="26.717" gradientUnits="userSpaceOnUse" r="17.151"><stop offset="0" stop-color="#fa6080"/><stop offset=".1781" stop-color="#f65979"/><stop offset=".431" stop-color="#ed4866"/><stop offset=".727" stop-color="#df2c48"/><stop offset="1" stop-color="#cf0d26"/></radialGradient><linearGradient id="linear-gradient-3" x1="24" x2="24" xlink:href="#linear-gradient" y1="18.862" y2="20.479"/><linearGradient id="linear-gradient-4" gradientUnits="userSpaceOnUse" x1="16.913" x2="16.913" y1="12.215" y2="17.362"><stop offset=".0056" stop-color="#3c466e"/><stop offset="1" stop-color="#252949"/></linearGradient><linearGradient id="linear-gradient-5" gradientTransform="matrix(-1 0 0 1 -4774 0)" x1="-4804.918" x2="-4804.918" xlink:href="#linear-gradient-4" y1="12.215" y2="17.362"/><linearGradient id="linear-gradient-6" gradientUnits="userSpaceOnUse" x1="15.233" x2="8.4" xlink:href="#lg1" y1="32.989" y2="17.466"/><linearGradient id="linear-gradient-7" x1="23.932" x2="42" xlink:href="#linear-gradient-6" y1="27.28" y2="27.28"/><g isolation="isolate"><g id="Gradient"><path d="m34 26c0 5.23-4.12 8.75-10.25 8.75s-10.25-3.52-10.25-8.75c0-.3.14-.59.38-.78.11-.09 2.85-2.22 10.12-2.22 7.21 0 9.47 2.06 9.71 2.29.18.19.29.44.29.71z" fill="url(#linear-gradient)"/><path d="m30.91 32.56c-.48.37-1 .7-1.58.99-1.55.77-3.44 1.2-5.58 1.2-1.82 0-3.45-.31-4.86-.88-.67-.27-1.29-.6-1.84-.98v-.01c.08-.3.15-.56.19-.7.82-3.05 3.6-5.18 6.76-5.18 3.07 0 5.76 1.97 6.67 4.89.03.1.12.34.24.67z" fill="url(#linear-gradient-2)"/><path d="m41.9998 24c0 3.6833-1.1064 7.1075-3.0076 9.961-.14.2136-.2871.4271-.4411.6337-3.2737 4.4886-8.571 7.4051-14.5511 7.4051-7.8813 0-14.5791-5.0663-17.016-12.1213l-.0035-.0035c-.6337-1.8416-.9803-3.8199-.9803-5.875 0-3.3367.9068-6.4633 2.4894-9.1417 3.1336-5.3008 8.9071-8.8581 15.5105-8.8581 6.9534 0 12.986 3.9424 15.9831 9.7159 1.2884 2.4789 2.0167 5.2974 2.0167 8.284z" fill="url(#radial-gradient)"/><path d="m30.4283 33.2748c-.7738 1.2779-1.6351 2.3668-2.5314 3.2981-.9908 1.0293-2.0307 1.8627-3.0531 2.5384-4.0369 2.6644-7.8708 2.8885-7.8708 2.8885s-2.2198-2.1113-4.128-4.8667c-1.0644-1.53-2.0307-3.2596-2.4684-4.9332-.2171-.8333-.3781-1.6491-.4692-2.4333-.5392-4.4676.9943-7.9723 5.4689-8.3119 4.8492-.3676 6.0151 4.8212 6.0151 4.8212 4.289-4.5131 13.1331.2661 9.0367 6.999z" fill="url(#radial-gradient-2)"/><path d="m27.8969 36.5729c-.9908 1.0293-2.0307 1.8627-3.0531 2.5384-.7073-.3747-1.334-.9943-1.6596-1.9817-.4272-1.292.9243-1.2465.9243-1.2465l3.7883.6897z" fill="#b81219" opacity=".2" mix-blend-mode="multiply"/><path d="m27.0489 18.8616h-6.0985c-.4301 0-.7201.4398-.5507.8351.0492.1147.1307.2137.2389.2758.3272.1881 1.2.5062 3.361.5062s3.0338-.3181 3.361-.5062c.1082-.0622.1898-.1611.2389-.2758.1694-.3953-.1205-.8351-.5507-.8351z" fill="url(#linear-gradient-3)"/><path d="m14.7681 14.7886c0-1.4204.9589-2.5733 2.1443-2.5733s2.1444 1.1529 2.1444 2.5733-.959 2.5732-2.1444 2.5732-2.1443-1.1528-2.1443-2.5732z" fill="url(#linear-gradient-4)"/><path d="m20.0634 10.1833c-1.9813-.1034-3.9845.2532-5.7794 1.1354-.35.1616-.6684-.308-.3929-.5731 1.6263-1.6594 4.13-2.3682 6.4078-1.9429.8567.2134.6371 1.4573-.2355 1.3806z" fill="#de8009"/><path d="m33.0617 14.7886c0 1.4204-.9589 2.5732-2.1443 2.5732s-2.1444-1.1528-2.1444-2.5732.959-2.5733 2.1444-2.5733 2.1443 1.1529 2.1443 2.5733z" fill="url(#linear-gradient-5)"/><path d="m27.5309 8.8028c1.7301-.3312 3.5441.0173 5.059.8887.5049.2775.9491.6556 1.3489 1.0541.1382.1377.1385.3614.0008.4996-.1137.1144-.2834.1324-.4186.0623-1.7874-.8761-3.7831-1.2262-5.7545-1.1242-.8786.0746-1.0871-1.1713-.2355-1.3806z" fill="#de8009"/><path d="m21.324 32.7738c-2.984 4.9749-9.5692 2.6981-10.0116 1.8219-.4004-.793-.7277-1.6008-.9356-2.3959-.2171-.8333-.3781-1.6491-.4692-2.4333l10.2726.4236s2.4188.4579 1.1438 2.5836z" fill="#b81219" opacity=".2" mix-blend-mode="multiply"/><path d="m14.6062 34.5387c-3.7953-.4481-5.2869-1.6946-7.6222-4.6601l-.0035-.0035c-.6337-1.8416-.9803-3.8199-.9803-5.875 0-3.3367.9068-6.4633 2.4894-9.1417-.14 2.7485-.1856 5.7665.1295 7.3386.2521 1.2324.3641 2.9516 3.5818 3.5468 3.2176.5987 5.1433-.5952 5.84 0 .6967.5987-2.0587 2.1252-1.1274 2.2232.9278.098 3.2492-.2661 3.7323 1.7927.4797 2.0552-1.5896 5.3043-6.0396 4.7791z" fill="url(#linear-gradient-6)"/><path d="m41.9998 24c0 3.6833-1.1064 7.1075-3.0076 9.961l-.4411.6337c-3.5897 3.6821-7.0706 3.9981-9.898 4.219-3.8093.2976-4.345-1.7576-4.6531-2.9516-.3116-1.1939.4496-2.6868 2.1007-2.7555 1.0969-.0456 1.7576-.6617.8613-1.1589s-1.1274-1.558-.5287-1.5931c.5952-.0315 3.9144 1.0959 6.6664 0s4.7757-6.3547 4.7757-6.3547c1.2079-2.3949 1.8627-6.4633 2.1077-8.284 1.2884 2.4789 2.0167 5.2974 2.0167 8.284z" fill="url(#linear-gradient-7)"/></g></g></svg>