<svg height="512" viewBox="0 0 512 512" width="512" xmlns="http://www.w3.org/2000/svg"><g id="Layer_1" data-name="Layer 1"><path d="m356.411 30.441a145.853 145.853 0 0 0 -145.853 145.852 180.567 180.567 0 0 0 11.711 63.178 46.2 46.2 0 0 1 -27.761-42.358 46.193 46.193 0 1 1 -92.385 0 46.19 46.19 0 0 1 -61.06 43.734v229.389a11.323 11.323 0 0 0 11.323 11.323h29.114v-195.859h105v195.859h242.518a11.324 11.324 0 0 0 11.323-11.323v-151.01c32.448-37.02 61.922-86.241 61.922-142.933a145.853 145.853 0 0 0 -145.852-145.852zm-111.142 336.181v-80.922h.65c22.9 35.006 52.579 62.662 75.418 80.92zm111.142-102.643a89.875 89.875 0 1 1 89.875-89.879 89.874 89.874 0 0 1 -89.875 89.879z" fill="#57a4ff"/><path d="m507.263 176.293c0-83.18-67.672-150.852-150.852-150.852a150.827 150.827 0 0 0 -125.586 67.375h-145.969a54.914 54.914 0 0 0 -47.008 26.224c-15.1 24.444-33.111 57.831-33.111 78.073a51.271 51.271 0 0 0 31.326 47.18v225.943a16.342 16.342 0 0 0 16.323 16.323h376.632a16.342 16.342 0 0 0 16.323-16.323v-149.212c32.526-37.552 61.922-87.357 61.922-144.731zm-150.852-140.852c77.666 0 140.852 63.186 140.852 140.852 0 96.249-87.913 171.128-125.711 198.853a25.893 25.893 0 0 1 -30.491.166c-37.735-27.093-125.5-100.72-125.5-199.019-.003-77.666 63.183-140.852 140.85-140.852zm-106.142 265.22c18.126 24.8 39.024 45.394 57.2 60.961h-57.2zm-235.532-103.548c0-13.961 11.229-39.821 31.618-72.816a44.978 44.978 0 0 1 38.5-21.481h139.85a149.91 149.91 0 0 0 -19.147 73.477 181.451 181.451 0 0 0 7.564 51.423 41.2 41.2 0 0 1 -13.614-30.6 5 5 0 0 0 -10 0 41.193 41.193 0 1 1 -82.385 0 5 5 0 0 0 -10 0 41.193 41.193 0 0 1 -82.386 0zm71.763 278.477v-184.89h95v184.89zm348.839-5.354a6.331 6.331 0 0 1 -6.323 6.323h-237.511v-190.859a5 5 0 0 0 -5-5h-105.005a5 5 0 0 0 -5 5v190.859h-24.114a6.33 6.33 0 0 1 -6.323-6.323v-222.893a51.166 51.166 0 0 0 56.06-28.172 51.186 51.186 0 0 0 92.381.009 51.2 51.2 0 0 0 23.862 24 238.444 238.444 0 0 0 21.9 42.877v80.562a5 5 0 0 0 5 5h74.334c5.765 4.575 11.056 8.53 15.629 11.813a35.875 35.875 0 0 0 42.238-.225 429.181 429.181 0 0 0 57.874-51.1zm-78.93-201.257a94.875 94.875 0 1 0 -94.873-94.879 94.982 94.982 0 0 0 94.875 94.879zm0-179.75a84.875 84.875 0 1 1 -84.873 84.871 84.971 84.971 0 0 1 84.875-84.871z" fill="#004fac"/></g></svg>