<svg id="Layer_1" enable-background="new 0 0 512 512" height="512" viewBox="0 0 512 512" width="512" xmlns="http://www.w3.org/2000/svg" xmlns:xlink="http://www.w3.org/1999/xlink"><linearGradient id="SVGID_1_" gradientUnits="userSpaceOnUse" x1="74.981" x2="437.019" y1="437.019" y2="74.981"><stop offset="0" stop-color="#011c49"/><stop offset="1" stop-color="#00b8e0"/></linearGradient><path clip-rule="evenodd" d="m256 0c141.385 0 256 114.615 256 256s-114.615 256-256 256-256-114.615-256-256 114.615-256 256-256zm-107.5 146.865c-16.523 0-30 13.477-30 30v131.743c0 16.523 13.476 30 30 30h215c16.523 0 30-13.477 30-30v-131.743c0-16.523-13.477-30-30-30zm149.4 101.413c2.035-1.175 3.2-3.192 3.2-5.542s-1.165-4.367-3.2-5.542l-65.4-37.759c-2.035-1.175-4.365-1.175-6.4 0s-3.2 3.192-3.2 5.542v75.518c0 2.35 1.165 4.367 3.2 5.542s4.365 1.175 6.4 0zm-110 136.858h136.2c6.627 0 12-5.373 12-12 0-6.628-5.373-12-12-12h-136.2c-6.627 0-12 5.373-12 12s5.373 12 12 12z" fill="url(#SVGID_1_)" fill-rule="evenodd"/></svg>