<svg id="Capa_1" enable-background="new 0 0 512 512" height="512" viewBox="0 0 512 512" width="512" xmlns="http://www.w3.org/2000/svg"><g><g><circle cx="392.274" cy="392.274" fill="#ccf49f" r="112.226"/><path d="m408.306 488.468c-61.981 0-112.226-50.245-112.226-112.226 0-26.906 9.489-51.584 25.276-70.917-25.202 20.579-41.309 51.875-41.309 86.949 0 61.981 50.245 112.226 112.226 112.226 35.074 0 66.37-16.107 86.949-41.309-19.331 15.787-44.009 25.277-70.916 25.277z" fill="#b3e59f"/><circle cx="119.726" cy="392.274" fill="#ead1ff" r="112.226"/><path d="m135.758 488.468c-61.981 0-112.226-50.245-112.226-112.226 0-26.906 9.489-51.584 25.276-70.917-25.201 20.579-41.308 51.875-41.308 86.949 0 61.981 50.245 112.226 112.226 112.226 35.074 0 66.37-16.107 86.949-41.309-19.333 15.787-44.011 25.277-70.917 25.277z" fill="#d6bdef"/><circle cx="392.274" cy="119.726" fill="#ff8086" r="112.226"/><path d="m408.306 215.919c-61.981 0-112.226-50.245-112.226-112.226 0-26.906 9.489-51.584 25.276-70.917-25.202 20.579-41.309 51.875-41.309 86.949 0 61.981 50.245 112.226 112.226 112.226 35.074 0 66.37-16.107 86.949-41.309-19.331 15.788-44.009 25.277-70.916 25.277z" fill="#e5646e"/><circle cx="119.726" cy="119.726" fill="#a4ccff" r="112.226"/><path d="m135.758 215.919c-61.981 0-112.226-50.245-112.226-112.226 0-26.906 9.489-51.584 25.276-70.917-25.201 20.58-41.308 51.875-41.308 86.95 0 61.981 50.245 112.226 112.226 112.226 35.074 0 66.37-16.107 86.949-41.309-19.333 15.787-44.011 25.276-70.917 25.276z" fill="#8bb3ea"/><g fill="#fff"><path d="m435.315 127.907-61.868 30.934c-6.082 3.041-13.237-1.382-13.237-8.181v-61.868c0-6.8 7.156-11.222 13.237-8.181l61.868 30.934c6.741 3.371 6.741 12.991 0 16.362z"/><path d="m151.79 344.177h-64.129c-8.854 0-16.032 7.178-16.032 16.032v64.129c0 8.854 7.178 16.032 16.032 16.032h64.129c8.854 0 16.032-7.178 16.032-16.032v-64.128c.001-8.855-7.177-16.033-16.032-16.033z"/><path d="m381.264 337.209c-21.845 4.151-39.528 21.617-43.926 43.413-3.256 16.138.443 31.366 8.609 43.297l-9.787 24.467 24.467-9.787c11.931 8.166 27.16 11.866 43.298 8.609 21.797-4.398 39.263-22.082 43.413-43.927 7.515-39.551-26.523-73.587-66.074-66.072z"/></g><circle cx="119.726" cy="392.274" fill="#d6bdef" r="16.032"/></g><g><path d="m135.758 119.209c4.142 0 7.5-3.358 7.5-7.5s-3.358-7.5-7.5-7.5h-16.549v-16.548c0-9.125 7.424-16.548 16.549-16.548h8.016c4.142 0 7.5-3.358 7.5-7.5s-3.358-7.5-7.5-7.5h-8.016c-17.396 0-31.549 14.152-31.549 31.548v16.548h-16.548c-4.142 0-7.5 3.358-7.5 7.5s3.358 7.5 7.5 7.5h16.548v56.629c0 4.142 3.358 7.5 7.5 7.5s7.5-3.358 7.5-7.5v-56.629z"/><path d="m399.774 272.79v-33.58c62.536-3.885 112.226-55.987 112.226-119.484 0-27.17-8.873-52.785-25.661-74.074-2.565-3.254-7.28-3.811-10.533-1.246-3.252 2.564-3.81 7.28-1.246 10.533 14.681 18.617 22.44 41.02 22.44 64.787 0 57.746-46.979 104.726-104.726 104.726s-104.726-46.98-104.726-104.726 46.98-104.726 104.726-104.726c21.549 0 42.244 6.492 59.847 18.773 3.398 2.37 8.072 1.539 10.442-1.859 2.37-3.397 1.538-8.072-1.859-10.442-20.133-14.047-43.796-21.472-68.43-21.472-63.497 0-115.599 49.69-119.484 112.226h-33.58c-3.885-62.536-55.987-112.226-119.484-112.226-66.018 0-119.726 53.708-119.726 119.726 0 63.498 49.69 115.599 112.226 119.484v33.58c-62.536 3.885-112.226 55.987-112.226 119.484 0 66.018 53.708 119.726 119.726 119.726 63.498 0 115.599-49.69 119.484-112.226h33.58c3.885 62.536 55.987 112.226 119.484 112.226 66.018 0 119.726-53.708 119.726-119.726 0-63.497-49.69-115.599-112.226-119.484zm-384.774-153.064c0-57.747 46.979-104.726 104.726-104.726s104.726 46.979 104.726 104.726-46.98 104.726-104.726 104.726-104.726-46.98-104.726-104.726zm104.726 377.274c-57.747 0-104.726-46.979-104.726-104.726s46.979-104.726 104.726-104.726c21.549 0 42.244 6.492 59.847 18.773 3.398 2.37 8.073 1.538 10.442-1.859 2.37-3.397 1.538-8.072-1.859-10.442-18.08-12.614-39.01-19.868-60.93-21.22v-33.59c60.055-3.731 108.253-51.93 111.984-111.984h33.58c3.731 60.055 51.93 108.253 111.984 111.984v33.58c-60.055 3.731-108.253 51.93-111.984 111.984h-33.592c-1.484-24.372-10.174-47.256-25.407-66.575-2.565-3.253-7.28-3.81-10.534-1.245-3.252 2.564-3.81 7.28-1.246 10.533 14.68 18.618 22.439 41.021 22.439 64.788.002 57.746-46.978 104.725-104.724 104.725zm272.548 0c-57.746 0-104.726-46.979-104.726-104.726s46.98-104.726 104.726-104.726 104.726 46.98 104.726 104.726-46.979 104.726-104.726 104.726z"/><path d="m376.801 73.903c-5.199-2.6-11.253-2.327-16.196.729-4.944 3.055-7.896 8.349-7.896 14.161v61.868c0 5.812 2.952 11.105 7.896 14.161 2.69 1.663 5.709 2.501 8.741 2.501 2.539 0 5.086-.588 7.455-1.773l61.868-30.934c5.676-2.838 9.202-8.543 9.202-14.889s-3.526-12.051-9.202-14.889zm55.16 47.296-61.869 30.934c-.678.339-1.245.148-1.602-.072s-.781-.642-.781-1.401v-61.868c0-.759.425-1.181.781-1.401.216-.134.51-.257.86-.257.226 0 .476.051.742.185l61.868 30.934c.604.302.91.797.91 1.473s-.306 1.17-.909 1.473z"/><path d="m151.791 336.677h-64.13c-12.976 0-23.532 10.557-23.532 23.532v64.129c0 12.976 10.557 23.532 23.532 23.532h64.129c12.976 0 23.532-10.557 23.532-23.532v-64.129c.001-12.975-10.556-23.532-23.531-23.532zm8.532 87.662c0 4.705-3.828 8.532-8.532 8.532h-64.13c-4.705 0-8.532-3.828-8.532-8.532v-64.129c0-4.705 3.828-8.532 8.532-8.532h64.129c4.705 0 8.532 3.828 8.532 8.532v64.129z"/><path d="m119.726 368.742c-12.976 0-23.532 10.557-23.532 23.533s10.557 23.532 23.532 23.532c12.976 0 23.533-10.557 23.533-23.532-.001-12.977-10.557-23.533-23.533-23.533zm0 32.065c-4.705 0-8.532-3.828-8.532-8.532 0-4.705 3.828-8.533 8.532-8.533 4.705 0 8.533 3.828 8.533 8.533-.001 4.704-3.828 8.532-8.533 8.532z"/><path d="m392.274 328.661c-35.077 0-63.613 28.537-63.613 63.613 0 11.496 3.063 22.625 8.895 32.432l-8.358 20.895c-1.114 2.786-.461 5.967 1.66 8.089 1.434 1.434 3.352 2.197 5.305 2.197.937 0 1.881-.175 2.784-.537l20.895-8.358c9.807 5.831 20.936 8.895 32.433 8.895 35.076 0 63.613-28.537 63.613-63.613-.001-35.076-28.537-63.613-63.614-63.613zm0 112.226c-9.83 0-19.308-2.931-27.41-8.476-1.266-.867-2.746-1.311-4.237-1.311-.941 0-1.886.177-2.785.537l-8.218 3.288 3.287-8.219c.93-2.323.639-4.957-.774-7.022-5.545-8.102-8.476-17.58-8.476-27.409 0-26.806 21.808-48.613 48.613-48.613s48.613 21.808 48.613 48.613-21.807 48.612-48.613 48.612z"/><path d="m403.976 403.976c-3.125 3.125-7.281 4.847-11.701 4.847s-8.576-1.722-11.702-4.847-4.847-7.281-4.847-11.701 1.721-8.576 4.847-11.702c2.929-2.929 2.929-7.678 0-10.606-2.929-2.929-7.678-2.929-10.606 0-5.959 5.958-9.24 13.881-9.24 22.308s3.281 16.349 9.24 22.308c5.958 5.959 13.881 9.241 22.308 9.241s16.349-3.282 22.308-9.241c2.929-2.929 2.929-7.678 0-10.606-2.93-2.931-7.679-2.93-10.607-.001z"/></g></g></svg>