<svg id="Layer_1" enable-background="new 0 0 3000 3000" height="512" viewBox="0 0 3000 3000" width="512" xmlns="http://www.w3.org/2000/svg"><g><path d="m1964.55 2780h-985.29c-148.33 0-270.57-124.27-277.85-282.47l-102.26-2219.53h1750.9l-107.68 2220.3c-7.66 157.88-129.77 281.7-277.82 281.7z" fill="#85b7c3"/></g><g opacity=".33"><path d="m2228.72 278-93.13 2130.67c-6.62 151.51-112.24 270.33-240.28 270.33h-852.17c-128.28 0-234.01-119.25-240.3-271.07l-84.94-2045.6-3.5-84.33z" fill="#faf3d0"/></g><g><path d="m1840.78 2552h-737.62c-111.04 0-202.55-84.58-208.01-192.26l-76.55-1510.74h1310.78l-80.61 1511.26c-5.73 107.46-97.15 191.74-207.99 191.74z" fill="#faa805"/></g><g><ellipse cx="1474.5" cy="277.5" fill="#fff" rx="875.5" ry="164.5"/></g><g><ellipse cx="1485" cy="263.5" fill="#c5c4cc" rx="771" ry="87.5"/></g><g><ellipse cx="1473.5" cy="848" fill="#fab505" rx="655.5" ry="113"/></g><g opacity=".22"><path d="m1401.05 2679h-357.97c-128.3 0-234.04-122.47-240.34-278.4l-84.94-2100.91 402.97 82.4c-.01.01-71.18 1670.73 280.28 2296.91z" fill="#fff"/></g><g><path d="m1937.54 1392.99c-1.18 0-2.37-.04-3.56-.11-28.45-1.78-49.95-24.4-48.01-50.53l52.78-711.45c1.94-26.12 26.57-45.86 55.03-44.08 28.45 1.78 49.95 24.4 48.01 50.53l-52.78 711.45c-1.86 25.02-24.55 44.19-51.47 44.19z" fill="#fff"/></g><g><ellipse cx="1209" cy="1428.5" fill="#fab50b" rx="31" ry="28.5"/></g><g><ellipse cx="1271" cy="1672.5" fill="#fab50b" rx="31" ry="28.5"/></g><g><ellipse cx="1401" cy="1845.5" fill="#fab50b" rx="31" ry="28.5"/></g><g><ellipse cx="1486" cy="1529.5" fill="#fab50b" rx="31" ry="28.5"/></g><g><ellipse cx="1601" cy="1317.5" fill="#fab50b" rx="31" ry="28.5"/></g><g><ellipse cx="1995" cy="1789.5" fill="#fab50b" rx="31" ry="28.5"/></g><g><ellipse cx="1732" cy="1672.5" fill="#fab50b" rx="31" ry="28.5"/></g><g><ellipse cx="1906" cy="1557.5" fill="#fab50b" rx="31" ry="28.5"/></g></svg>