<svg id="Capa_1" enable-background="new 0 0 512 512" height="512" viewBox="0 0 512 512" width="512" xmlns="http://www.w3.org/2000/svg"><g><path d="m256 22c-135.31 0-245 109.69-245 245 0 77.553 36.043 146.678 92.281 191.57l1-3.842v-104.996c.748.178 1.511.268 2.28.268h38.439c.77 0 1.532-.09 2.281-.268v132.912l1 4.45c32.511 15.942 69.066 24.906 107.719 24.906 135.31 0 245-109.69 245-245s-109.69-245-245-245z" fill="#d5e3f4"/><g fill="#5f99d7"><path d="m103.281 82h45v156h-45z"/><g><path d="m106.562 308h38.438c1.158 0 2.263.228 3.281.628v-28.628h-45v28.628c1.018-.4 2.122-.628 3.281-.628z"/><path d="m145 349h-38.438c-1.158 0-2.263-.228-3.281-.628v110.198c13.854 11.059 28.931 20.645 45 28.525v-138.723c-1.018.4-2.123.628-3.281.628z"/></g><path d="m148.281 40v-30c0-5.523-4.477-10-10-10h-25c-5.523 0-10 4.477-10 10v30z"/></g><g fill="#3c87d0"><path d="m103.281 82h16.719v156h-16.719z"/><path d="m120 40v-30c0-5.523 4.477-10 10-10h-16.719c-5.523 0-10 4.477-10 10v30z"/><g><path d="m106.562 349c-1.158 0-2.263-.228-3.281-.628v110.198c5.391 4.303 10.972 8.376 16.719 12.219v-121.789z"/><path d="m106.562 308h13.438v-28h-16.719v28.628c1.018-.4 2.122-.628 3.281-.628z"/></g></g><g><path d="m96.562 317v23c0 5.523 4.477 10 10 10h38.438c5.523 0 10-4.477 10-10v-23c0-5.523-4.477-10-10-10h-38.438c-5.523 0-10 4.477-10 10z" fill="#0078c8"/></g><path d="m118 340v-23c0-5.523 4.477-10 10-10h-21.438c-5.523 0-10 4.477-10 10v23c0 5.523 4.477 10 10 10h21.438c-5.523 0-10-4.477-10-10z" fill="#0268b4"/><g><path d="m472.754 39h-383.473c-2.761 0-5 2.239-5 5v34c0 2.761 2.239 5 5 5h82c2.761 0 5 2.239 5 5v144c0 2.761-2.239 5-5 5h-82c-2.761 0-5 2.239-5 5v34c0 2.761 2.239 5 5 5h383.474c8.098 0 12.838-9.122 8.183-15.748l-71.918-102.378c-1.211-1.725-1.211-4.024 0-5.748l71.918-102.378c4.654-6.626-.086-15.748-8.184-15.748z" fill="#fd6930"/></g><g fill="#ef4424"><path d="m113.509 276v-34c0-2.761 2.239-5 5-5h-29.228c-2.761 0-5 2.239-5 5v34c0 2.761 2.239 5 5 5h29.228c-2.761 0-5-2.239-5-5z"/><path d="m171.281 237h29.228c2.761 0 5-2.239 5-5v-144c0-2.761-2.239-5-5-5h-29.228c2.761 0 5 2.239 5 5v144c0 2.761-2.239 5-5 5z"/><path d="m89.281 83h29.228c-2.761 0-5-2.239-5-5v-34c0-2.761 2.239-5 5-5h-29.228c-2.761 0-5 2.239-5 5v34c0 2.761 2.238 5 5 5z"/></g><g><path d="m294.281 39h-83.783l139.718 242h83.784z" fill="#fe7d43"/></g></g></svg>