<svg id="Layer_1" enable-background="new 0 0 512.003 512.003" height="512" viewBox="0 0 512.003 512.003" width="512" xmlns="http://www.w3.org/2000/svg"><g><g><path d="m226.002 512.003c-124.617 0-226-101.383-226-226s101.383-226 226-226 226 101.383 226 226-101.383 226-226 226z" fill="#ffde46"/></g><path d="m226.002 60.003v452c124.617 0 226-101.383 226-226s-101.383-226-226-226z" fill="#ffcd00"/><g><path d="m93.686 266.008c-1.608 0-3.242-.261-4.85-.809-7.839-2.678-12.023-11.204-9.346-19.044 9.056-26.514 33.965-44.328 61.983-44.328 27.996 0 52.899 17.797 61.969 44.285 2.684 7.837-1.495 16.366-9.333 19.05-7.843 2.683-16.366-1.496-19.05-9.333-4.915-14.356-18.412-24.002-33.586-24.002-15.186 0-28.687 9.655-33.595 24.025-2.126 6.233-7.954 10.156-14.192 10.156z" fill="#00347b"/></g><path clip-rule="evenodd" d="m267.64 350.004h53.447v60h-53.447z" fill="#f6efea" fill-rule="evenodd"/><g><path d="m262.753 266.008c-1.608 0-3.242-.261-4.85-.809-7.839-2.678-12.023-11.204-9.346-19.044 9.056-26.514 33.965-44.328 61.983-44.328 27.996 0 52.899 17.797 61.969 44.285 2.684 7.837-1.495 16.366-9.333 19.05-7.841 2.683-16.366-1.496-19.05-9.333-4.915-14.356-18.412-24.002-33.586-24.002-15.186 0-28.687 9.655-33.595 24.025-2.127 6.233-7.954 10.156-14.192 10.156z" fill="#001737"/></g><g><path d="m240.156 441.905c-4.496 0-8.941-2.013-11.896-5.85-5.054-6.564-3.829-15.982 2.734-21.037 12.528-9.646 20.008-24.843 20.008-40.653 0-14.555-6.214-28.477-17.05-38.195-6.167-5.531-6.683-15.015-1.15-21.182 5.532-6.168 15.016-6.682 21.182-1.15 17.171 15.4 27.019 37.462 27.019 60.527 0 25.055-11.853 49.139-31.706 64.425-2.727 2.098-5.947 3.115-9.141 3.115z" fill="#001737"/></g><g><path d="m46.257 215.004c-1.736 0-3.483-.301-5.165-.918-5.054-1.854-8.727-6.274-9.623-11.583l-3.167-18.744 10.061-29.692-15.719-3.795-5.872-34.753 8.314-31.24-14.118-3.114-10.756-63.663c-.885-5.235 1.064-10.549 5.125-13.971 4.062-3.421 9.627-4.441 14.638-2.68l60.843 21.379 2.822 15.922 30.021-4.382 33.224 11.674.245 16.538 32.598-4.999 17.261 6.065c5.079 1.784 8.813 6.154 9.782 11.449.97 5.296-.973 10.705-5.09 14.173l-145.757 122.805c-2.748 2.315-6.183 3.529-9.667 3.529z" fill="#ff3f5c"/></g><path d="m16.773 115.52 96.888-81.75-32.843-11.54-69.85 58.936z" fill="#d20763"/><path d="m22.644 150.272 5.658 33.487c1.436-.58 2.81-1.381 4.058-2.435l147.367-124.341-32.843-11.54z" fill="#d20763"/><g clip-rule="evenodd" fill-rule="evenodd"><circle cx="415.001" cy="61.003" fill="#00ab5e" r="15"/><ellipse cx="483.001" cy="145.862" fill="#d20763" rx="15" ry="15" transform="matrix(.707 -.707 .707 .707 38.328 384.256)"/><circle cx="267.694" cy="136.285" fill="#a24bdb" r="15"/><circle cx="28.002" cy="446.003" fill="#b760ea" r="15"/><circle cx="497.001" cy="15.003" fill="#a24bdb" r="15"/></g><g><path d="m430.002 507.003c-.25 0-.5-.002-.75-.007-8.282-.155-14.871-6.995-14.716-15.278.155-8.282 7.011-14.916 15.278-14.716l.188.001c6.064 0 11.495-3.614 13.836-9.207 3.198-7.643 11.988-11.244 19.628-8.046 7.643 3.198 11.244 11.986 8.046 19.628-7.024 16.781-23.318 27.625-41.51 27.625z" fill="#a24bdb"/></g><g><path d="m309.674 48.419c-18.191 0-34.484-10.843-41.509-27.624-3.199-7.642.402-16.43 8.044-19.629 7.639-3.196 16.43.402 19.628 8.045 2.342 5.594 7.773 9.208 13.837 9.208l.188-.001c8.266-.188 15.123 6.433 15.278 14.716s-6.433 15.123-14.716 15.278c-.25.005-.5.007-.75.007z" fill="#008adf"/></g><g><path d="m94.542 376.332c-2.622 0-5.271-.229-7.919-.699-8.157-1.447-13.597-9.232-12.149-17.39s9.231-13.596 17.39-12.149c5.974 1.065 11.95-1.551 15.232-6.649l.101-.159c4.354-7.048 13.594-9.234 20.645-4.879 7.048 4.354 9.232 13.596 4.879 20.645-.127.206-.258.411-.388.614-8.403 13.05-22.671 20.666-37.791 20.666z" fill="#00dd7b"/></g><path clip-rule="evenodd" d="m457.002 293.004c-2.762 0-5.001 2.238-5.003 5l-.023 37.009c-.005 8.281-6.719 14.991-15 14.991h-120.315v60h135.341c33.137 0 60-26.863 60-60v-2c0-30.25-24.75-55-55-55z" fill="#008adf" fill-rule="evenodd"/></g></svg>