<svg id="Gradient" viewBox="0 0 48 48" xmlns="http://www.w3.org/2000/svg" xmlns:xlink="http://www.w3.org/1999/xlink"><linearGradient id="linear-gradient" gradientUnits="userSpaceOnUse" x1="27.5" x2="27.5" y1="38.89" y2="9.11"><stop offset="0" stop-color="#2b8e40"/><stop offset="1" stop-color="#45bd62"/></linearGradient><linearGradient id="linear-gradient-2" gradientUnits="userSpaceOnUse" x1="28.1" x2="25.945" y1="18.748" y2="36.994"><stop offset="0" stop-color="#afc2cc"/><stop offset=".9944" stop-color="#d0e1e7"/></linearGradient><linearGradient id="linear-gradient-3" gradientUnits="userSpaceOnUse" x1="27.767" x2="25.684" y1="24.207" y2="37.209"><stop offset=".0056" stop-color="#d0e1e7"/><stop offset="1" stop-color="#afc2cc"/></linearGradient><path d="m27.6976 12.9613.7277 9.7508.7367 9.7999.1786 2.3342c.0579.8021-.1625 1.5642-.6238 2.1472-.3867.4982-.9144.8193-1.491.9259-.1136.021-.2202.0305-.3268.0401l-14.0055.6421c-1.4682.0803-2.9893-1.1985-3.1124-2.8418l-.0192-.2504-.4459-5.8813-1.1779-15.7531c-.0579-.8021.1625-1.5642.6238-2.1472s1.1027-.9252 1.8178-.9659l14.2316-.66c1.4688-.0683 2.7632 1.2163 2.8863 2.8597z" fill="#56606a"/><path d="m39.75 14.41-1.19 9.73-1.19 9.78-.28 2.33c-.1.8-.5 1.51-1.13 2-.53.42-1.18.64-1.84.64-.13 0-.25-.01-.37-.02l-15.89-1.94c-1.64-.2-2.81-1.7-2.61-3.34l.03-.25.71-5.8701 1.92-15.72c.1-.8.5-1.51 1.13-2s1.41-.71 2.21-.62l15.89 1.94c1.64.2 2.81 1.7 2.61 3.34z" fill="url(#linear-gradient)"/><path d="m38.56 24.14-1.19 9.78-.28 2.33c-.1.8-.5 1.51-1.13 2-.53.42-1.18.64-1.84.64-.13 0-.25-.01-.37-.02l-15.89-1.94c-1.64-.2-2.81-1.7-2.61-3.34l.03-.25 17.08-14.11c.4-.33.98-.3 1.35.06z" fill="url(#linear-gradient-2)"/><circle cx="24" cy="17" fill="#fff" r="3"/><path d="m37.37 33.92-.28 2.33c-.1.8-.5 1.51-1.13 2-.53.42-1.18.64-1.84.64-.13 0-.25-.01-.37-.02l-15.89-1.94c-1.64-.2-2.81-1.7-2.61-3.34l.74-6.1201 6.46-4.3c.35-.24.82-.22 1.16.04l13.76 10.71z" fill="url(#linear-gradient-3)"/></svg>