<svg id="Capa_1" enable-background="new 0 0 512 512" height="512" viewBox="0 0 512 512" width="512" xmlns="http://www.w3.org/2000/svg"><g><g><path d="m256 130.758c-4.19 0-7.587-3.397-7.587-7.587v-25.485c0-16.306 13.266-29.572 29.571-29.572h21.077c7.939 0 14.397-6.458 14.397-14.397v-18.414c0-4.191 3.397-7.587 7.587-7.587s7.587 3.397 7.587 7.587v18.414c0 16.306-13.266 29.572-29.572 29.572h-21.077c-7.938 0-14.396 6.458-14.396 14.397v25.485c.001 4.191-3.397 7.587-7.587 7.587z" fill="#9dc6fb"/></g><g><path d="m284.038 178.282-.737-3.824c-1.651-8.568-2.483-17.273-2.483-25.998v-23.667c0-5.845-4.738-10.584-10.584-10.584h-6.657-21.813c-5.845 0-10.584 4.738-10.584 10.584v23.667c0 8.725-.831 17.431-2.483 25.998l-.737 3.824z" fill="#ecf4ff"/></g><g><path d="m283.301 174.458c-1.651-8.568-2.483-17.273-2.483-25.998v-23.667c0-5.845-4.738-10.584-10.584-10.584h-19.933c5.845 0 10.584 4.738 10.584 10.584v23.667c0 8.725.831 17.431 2.483 25.998l.737 3.824h19.933z" fill="#cbe2ff"/></g><g><path d="m409.457 198.21h-87.065v-47.529c0-7 5.675-12.675 12.675-12.675h39.003c7.929 0 15.018 4.942 17.76 12.382z" fill="#ffe07d"/></g><g><path d="m102.543 198.21h87.065v-47.529c0-7-5.675-12.675-12.675-12.675h-39.003c-7.929 0-15.018 4.942-17.76 12.382z" fill="#ffe07d"/></g><g><path d="m391.83 150.388c-2.742-7.44-9.831-12.382-17.76-12.382h-24.01c7.929 0 15.018 4.942 17.76 12.382l17.627 47.822h24.01z" fill="#ffd064"/></g><g><path d="m176.933 138.006h-24.01c7 0 12.675 5.675 12.675 12.675v47.529h24.01v-47.529c0-7-5.675-12.675-12.675-12.675z" fill="#ffd064"/></g><g><path d="m408.225 170.209h-9.084l-11.391 2.976-12.656-2.976h-271.319c-37.348 0-69.601 26.135-77.342 62.672l-20.817 98.25c-7.56 35.68-7.486 72.556.216 108.206 7.422 34.352 43.885 53.847 76.574 40.939 36.018-14.222 67.748-37.513 92.111-67.613 14.417-17.811 36.106-28.16 59.021-28.16h44.922c22.915 0 44.604 10.348 59.021 28.16l.7.864c23.905 29.533 55.038 52.386 90.378 66.34l1.034.408c32.689 12.908 69.152-6.587 76.574-40.939 7.703-35.65 7.776-72.526.216-108.206l-20.817-98.251c-7.74-36.535-39.994-62.67-77.341-62.67z" fill="#9dc6fb"/></g><g><g><path d="m506.384 331.131-20.817-98.251c-7.741-36.536-39.995-62.672-77.342-62.672h-51.113c37.348 0 69.601 26.135 77.342 62.672l20.817 98.251c7.56 35.68 7.486 72.556-.216 108.206-3.84 17.771-15.459 31.548-30.299 38.938 1.607.678 3.213 1.359 4.838 2.001 32.689 12.908 69.152-6.586 76.574-40.939 7.702-35.649 7.776-72.525.216-108.206z" fill="#80b4fb"/></g></g><g><circle cx="378.334" cy="290.331" fill="#ffe07d" r="80.756"/></g><g><circle cx="378.334" cy="251.148" fill="#ffd064" r="21.664"/></g><g><circle cx="378.334" cy="329.514" fill="#9dc6fb" r="21.664"/></g><g><circle cx="417.516" cy="290.331" fill="#b3e59f" r="21.664"/></g><g><circle cx="339.151" cy="290.331" fill="#e28086" r="21.664"/></g><g><path d="m384.649 230.425c.609 1.999.941 4.118.941 6.316 0 11.965-9.699 21.664-21.664 21.664-2.198 0-4.317-.333-6.316-.941 2.704 8.883 10.956 15.348 20.723 15.348 11.965 0 21.664-9.699 21.664-21.664.001-9.767-6.465-18.018-15.348-20.723z" fill="#e7a561"/></g><g><path d="m384.649 308.791c.609 1.999.941 4.118.941 6.316 0 11.965-9.699 21.664-21.664 21.664-2.198 0-4.317-.333-6.316-.941 2.704 8.883 10.956 15.348 20.723 15.348 11.965 0 21.664-9.7 21.664-21.664.001-9.767-6.465-18.019-15.348-20.723z" fill="#80b4fb"/></g><g><path d="m423.832 269.608c.609 1.999.941 4.118.941 6.316 0 11.965-9.699 21.664-21.664 21.664-2.198 0-4.317-.333-6.316-.941 2.704 8.883 10.956 15.348 20.723 15.348 11.965 0 21.664-9.699 21.664-21.664.001-9.767-6.465-18.019-15.348-20.723z" fill="#95d6a4"/></g><g><path d="m345.467 269.608c.609 1.999.941 4.118.941 6.316 0 11.965-9.7 21.664-21.664 21.664-2.198 0-4.317-.333-6.316-.941 2.704 8.883 10.956 15.348 20.723 15.348 11.965 0 21.664-9.699 21.664-21.664 0-9.767-6.466-18.019-15.348-20.723z" fill="#dd636e"/></g><g><circle cx="133.666" cy="290.331" fill="#ffe07d" r="80.756"/></g><g><path d="m426.648 225.616c10.075 13.473 16.041 30.197 16.041 48.314 0 44.6-36.156 80.756-80.756 80.756-18.117 0-34.841-5.966-48.314-16.041 14.727 19.694 38.232 32.442 64.715 32.442 44.6 0 80.756-36.156 80.756-80.756 0-26.483-12.748-49.989-32.442-64.715z" fill="#ffd064"/></g><g><path d="m181.98 225.616c10.075 13.473 16.041 30.197 16.041 48.314 0 44.6-36.156 80.756-80.756 80.756-18.117 0-34.841-5.966-48.314-16.041 14.727 19.694 38.232 32.442 64.716 32.442 44.6 0 80.756-36.156 80.756-80.756 0-26.483-12.748-49.989-32.443-64.715z" fill="#ffd064"/></g><g><path d="m174.986 273.688h-21.347c-1.838 0-3.329-1.49-3.329-3.329v-21.347c0-3.677-2.981-6.657-6.657-6.657h-19.972c-3.677 0-6.657 2.981-6.657 6.657v21.347c0 1.838-1.49 3.329-3.329 3.329h-21.348c-3.677 0-6.657 2.981-6.657 6.657v19.972c0 3.677 2.981 6.657 6.657 6.657h21.347c1.838 0 3.329 1.49 3.329 3.329v21.348c0 3.677 2.981 6.657 6.657 6.657h19.972c3.677 0 6.657-2.981 6.657-6.657v-21.348c0-1.838 1.49-3.329 3.329-3.329h21.347c3.677 0 6.657-2.981 6.657-6.657v-19.972c.001-3.677-2.98-6.657-6.656-6.657z" fill="#4a80aa"/></g><g><g><path d="m174.986 273.688h-6.474v13.498c0 3.677-2.981 6.657-6.657 6.657h-21.347c-1.838 0-3.329 1.49-3.329 3.329v21.348c0 3.677-2.981 6.657-6.657 6.657h-13.498v6.474c0 3.677 2.981 6.657 6.657 6.657h19.972c3.677 0 6.657-2.981 6.657-6.657v-21.348c0-1.838 1.49-3.329 3.329-3.329h21.347c3.677 0 6.657-2.981 6.657-6.657v-19.972c0-3.677-2.981-6.657-6.657-6.657z" fill="#407093"/></g></g><g><g><circle cx="229.975" cy="216.621" fill="#ffe07d" r="11.962"/></g><g><circle cx="282.025" cy="216.621" fill="#ffe07d" r="11.962"/></g></g></g></svg>