<svg id="Capa_1" enable-background="new 0 0 512 512" height="512" viewBox="0 0 512 512" width="512" xmlns="http://www.w3.org/2000/svg"><g><g><path d="m199 63 67.211 137.824-67.211 198.076h-128.57v-335.9z" fill="#cef"/><path d="m199 63h128.53v335.9h-128.53z" fill="#9df"/></g><g><path d="m199 75 35.505-49.16-35.505-25.84h-104.01c-23.23 0-42.13 18.9-42.13 42.13v427.74c0 23.23 18.9 42.13 42.13 42.13h104.01l50.948-67.218-50.948-57.782h-116.14v-312z" fill="#705c99"/><path d="m345.14 42.13v411.682l-99 58.188h-47.14v-125h116.14v-312h-116.14v-75h104.01c23.23 0 42.13 18.9 42.13 42.13z" fill="#493373"/></g><g><path d="m199 431 13.015 15-13.015 15h-34.58c-8.28 0-15-6.72-15-15s6.72-15 15-15z" fill="#e6eef2"/></g><path d="m248.8 446c0 8.28-6.72 15-15 15h-34.8v-30h34.8c8.28 0 15 6.72 15 15z" fill="#b9ced9"/><g><g><path d="m199 111.47 17.693 42.128-17.693 38.872c-22.33 0-40.5-18.17-40.5-40.5s18.17-40.5 40.5-40.5z" fill="#e99a8b"/></g><path d="m239.5 151.97c0 22.3-18.12 40.45-40.41 40.5h-.09v-81c22.33 0 40.5 18.17 40.5 40.5z" fill="#c76e59"/></g><g><g><path d="m199 192.47 36.955 55.473-36.955 41.047-60.85.01c-7.92 0-14.34-6.42-14.34-14.34v-7.64c0-41.32 33.79-74.9 75.19-74.55z" fill="#f69"/></g><path d="m272.91 267.97v7.65c.07 7.42-6.3 13.38-13.7 13.36l-60.21.01v-96.52c41.072.345 73.913 34.43 73.91 75.5z" fill="#e62e6b"/></g><g><g><path d="m345.14 201 15 20.206-15 9.794c-33.64 0-61 27.36-61 61v50.86h-30v-50.86c0-50.18 40.82-91 91-91z" fill="#e6eef2"/></g></g><path d="m436.14 292v50.86h-30v-50.86c0-33.64-27.36-61-61-61v-30c50.18 0 91 40.82 91 91z" fill="#b9ced9"/><g><path d="m345.14 319 43.775 96.5-43.775 96.5h-99c-8.28 0-15-6.72-15-15v-163c0-8.28 6.72-15 15-15z" fill="#ffc34d"/></g><path d="m459.14 334v163c0 8.28-6.72 15-15 15h-99v-193h99c8.28 0 15 6.72 15 15z" fill="#f93"/><g><path d="m345.14 387 9.092 28.5-9.092 28.5c-8.28 0-15-6.72-15-15v-27c0-8.28 6.72-15 15-15z" fill="#705c99"/></g><path d="m360.14 402v27c0 8.28-6.72 15-15 15v-57c8.28 0 15 6.72 15 15z" fill="#493373"/></g></svg>