<?xml version="1.0" encoding="UTF-8"?>
<svg xmlns="http://www.w3.org/2000/svg" xmlns:xlink="http://www.w3.org/1999/xlink" version="1.1" id="Capa_1" x="0px" y="0px" viewBox="0 0 512 512" style="enable-background:new 0 0 512 512;" xml:space="preserve" width="512" height="512">
<g>
	<g>
		<path style="fill:#ECEBFF;" d="M370.61,160.36l-60.264,22.453L217.43,160.36l-84.25-60.504V9.9c8.8-1.58,17.86-2.4,27.12-2.4&#10;&#9;&#9;&#9;h124.71l86.08,74.671L370.61,160.36z"/>
		<path style="fill:#D1D0FF;" d="M225.333,7.5H160.3c-9.26,0-18.32,0.82-27.12,2.4v89.956l12.659,9.091&#10;&#9;&#9;&#9;C165.27,69.929,192.434,35.447,225.333,7.5z"/>
		<path style="fill:#5871A5;" d="M217.43,160.36l-104.965,29.453L7.5,160.36v-0.06C7.5,85.16,61.73,22.7,133.18,9.9L217.43,160.36z"/>
		<path style="fill:#5871A5;" d="M504.5,160.3v0.06l-58.527,22.453L370.61,160.36L285.01,7.5h66.69&#10;&#9;&#9;&#9;C436.09,7.5,504.5,75.91,504.5,160.3z"/>
		<path style="fill:#39599A;" d="M118.729,188.055c8.52-42.473,25.451-81.901,48.988-116.477L133.18,9.9&#10;&#9;&#9;&#9;C61.73,22.7,7.5,85.16,7.5,160.3v0.06l104.965,29.453L118.729,188.055z"/>
		<path style="fill:#53D2FF;" d="M504.5,160.36V351.7c0,84.39-68.41,152.8-152.8,152.8H160.3c-84.39,0-152.8-68.41-152.8-152.8&#10;&#9;&#9;&#9;V160.36H504.5z"/>
		<path style="fill:#00C1FD;" d="M112.465,251.281c0-31.589,4.603-62.1,13.137-90.921H7.5V351.7c0,84.39,68.41,152.8,152.8,152.8&#10;&#9;&#9;&#9;h59.218C150.361,449.355,112.465,358.301,112.465,251.281z"/>
		<path style="fill:#ECEBFF;" d="M334.483,287.945l-121.685-60.842c-26.228-13.114-57.087,5.958-57.087,35.282v121.685&#10;&#9;&#9;&#9;c0,29.324,30.859,48.396,57.087,35.282l121.685-60.842C363.557,343.972,363.557,302.482,334.483,287.945z"/>
		<path style="fill:#D1D0FF;" d="M207.051,287.975c0-20.529,4.316-40.046,12.076-57.709l-6.329-3.165&#10;&#9;&#9;&#9;c-26.228-13.114-57.087,5.958-57.087,35.282v121.685c0,29.324,30.86,48.396,57.087,35.282l44.507-22.253&#10;&#9;&#9;&#9;C226.548,370.758,207.051,331.646,207.051,287.975z"/>
	</g>
	<g>
		<path style="fill:none;stroke:#000000;stroke-width:15;stroke-linecap:round;stroke-linejoin:round;stroke-miterlimit:10;" d="&#10;&#9;&#9;&#9;M7.5,293.951V351.7c0,84.39,68.41,152.8,152.8,152.8h191.4c84.39,0,152.8-68.41,152.8-152.8V160.36H7.5v103.591"/>
		<path style="fill:none;stroke:#000000;stroke-width:15;stroke-linecap:round;stroke-linejoin:round;stroke-miterlimit:10;" d="&#10;&#9;&#9;&#9;M217.43,160.36H7.5v-0.06C7.5,85.16,61.73,22.7,133.18,9.9L217.43,160.36z"/>
		<path style="fill:none;stroke:#000000;stroke-width:15;stroke-linecap:round;stroke-linejoin:round;stroke-miterlimit:10;" d="&#10;&#9;&#9;&#9;M332.622,92.522L285.01,7.5H160.3c-9.26,0-18.32,0.82-27.12,2.4l84.25,150.46h153.18l-21.189-37.838"/>
		<path style="fill:none;stroke:#000000;stroke-width:15;stroke-linecap:round;stroke-linejoin:round;stroke-miterlimit:10;" d="&#10;&#9;&#9;&#9;M349.421,122.522l21.189,37.838H504.5v-0.06c0-84.39-68.41-152.8-152.8-152.8h-66.69l47.611,85.022"/>
		<path style="fill:none;stroke:#000000;stroke-width:15;stroke-linecap:round;stroke-linejoin:round;stroke-miterlimit:10;" d="&#10;&#9;&#9;&#9;M334.484,287.945l-121.685-60.842c-26.228-13.114-57.087,5.958-57.087,35.282v121.685c0,29.324,30.859,48.396,57.087,35.282&#10;&#9;&#9;&#9;l121.685-60.842C363.558,343.972,363.558,302.482,334.484,287.945z"/>
		<g>
			
				<line style="fill:none;stroke:#000000;stroke-width:15;stroke-linecap:round;stroke-linejoin:round;stroke-miterlimit:10;" x1="190.552" y1="313.655" x2="190.552" y2="325.655"/>
			
				<line style="fill:none;stroke:#000000;stroke-width:15;stroke-linecap:round;stroke-linejoin:round;stroke-miterlimit:10;" x1="315.449" y1="313.655" x2="315.449" y2="325.655"/>
			<path style="fill:none;stroke:#000000;stroke-width:15;stroke-linecap:round;stroke-linejoin:round;stroke-miterlimit:10;" d="&#10;&#9;&#9;&#9;&#9;M236.536,325.298c4.003,4.594,9.892,7.501,16.464,7.501c6.572,0,12.461-2.907,16.464-7.501"/>
		</g>
	</g>
</g>















</svg>
