<svg id="Gradient" viewBox="0 0 48 48" xmlns="http://www.w3.org/2000/svg" xmlns:xlink="http://www.w3.org/1999/xlink"><radialGradient id="radial-gradient" cx="24.072" cy="13.359" gradientUnits="userSpaceOnUse" r="25.433"><stop offset=".0056" stop-color="#feeb72"/><stop offset=".3156" stop-color="#fde86f"/><stop offset=".5153" stop-color="#fcdf68"/><stop offset=".6839" stop-color="#fbd05c"/><stop offset=".8352" stop-color="#f9bb4b"/><stop offset=".9737" stop-color="#f6a134"/><stop offset="1" stop-color="#f69b30"/></radialGradient><linearGradient id="linear-gradient" gradientUnits="userSpaceOnUse" x1="24" x2="24" y1="35.25" y2="30.75"><stop offset="0" stop-color="#8b3a0e"/><stop offset="1" stop-color="#472315"/></linearGradient><linearGradient id="linear-gradient-2" gradientUnits="userSpaceOnUse" x1="16.648" x2="16.648" y1="28.5" y2="22.506"><stop offset=".0056" stop-color="#3c466e"/><stop offset="1" stop-color="#252949"/></linearGradient><linearGradient id="linear-gradient-3" x1="31.347" x2="31.347" xlink:href="#linear-gradient-2" y1="28.495"/><linearGradient id="linear-gradient-4" gradientUnits="userSpaceOnUse" x1="36.422" x2="36.422" y1="42" y2="30.269"><stop offset=".0056" stop-color="#35cafc"/><stop offset="1" stop-color="#007edb"/></linearGradient><linearGradient id="linear-gradient-5" gradientUnits="userSpaceOnUse" x1="36.422" x2="36.422" y1="35.886" y2="31.065"><stop offset="0" stop-color="#fff"/><stop offset="1" stop-color="#007edb"/></linearGradient><path d="m42 24c0 9.9405-8.0594 18-17.9999 18s-18.0001-8.0595-18.0001-18 8.0595-18 18-18 17.9999 8.0595 17.9999 18" fill="url(#radial-gradient)"/><path d="m17.997 34.7235c0 .306.2114.5265.5624.5265.792 0 1.8811-1.4063 5.4406-1.4063s4.6485 1.4063 5.4405 1.4063c.351 0 .5624-.2206.5624-.5265 0-.8977-1.89-3.9735-6.0029-3.9735s-6.003 3.0758-6.003 3.9735z" fill="url(#linear-gradient)"/><path d="m14.0955 25.8022c0-1.8292 1.1497-3.2962 2.556-3.2962s2.5492 1.467 2.5492 3.2962c0 .756-.2025 1.458-.5354 2.0205-.1507.2475-.3961.432-.6773.5018-.315.0878-.7897.1755-1.3365.1755-.5535 0-1.0192-.0878-1.3432-.1755-.2813-.0698-.5288-.2543-.6682-.5018-.36-.6142-.5535-1.3094-.5445-2.0205z" fill="url(#linear-gradient-2)"/><path d="m28.7993 25.8022c0-1.8292 1.143-3.2962 2.5492-3.2962 1.4152 0 2.547 1.467 2.547 3.2962 0 .756-.2002 1.458-.5355 2.0205-.1485.2475-.387.432-.6772.5018-.8685.2272-1.7932.2272-2.6707 0-.2813-.0698-.5265-.2543-.6772-.5018-.3601-.6142-.5446-1.3094-.5355-2.0205z" fill="url(#linear-gradient-3)"/><path d="m30.6497 17.9761c2.1452.1927 4.2008 1.2247 5.6457 2.8201.4895.5219.8623 1.1531 1.1428 1.7958.1177.2697-.0056.5838-.2753.7015-.2097.0921-.4368.0353-.5933-.1108-.4855-.3952-.9212-.7853-1.4233-1.0989-1.4749-.9931-3.1701-1.5751-4.8699-2.0545-1.1949-.3703-.8643-2.1305.3733-2.0532z" fill="#de8009"/><path d="m17.7957 20.0592c-2.2641.612-4.4342 1.5248-6.1918 3.1235-.4174.4081-1.1015-.0579-.8686-.5907 1.0579-2.4792 3.6231-4.0976 6.2181-4.5513.1838-.0301.3455-.0482.5704-.0646.5781-.0421 1.0808.3923 1.1229.9704.0415.5443-.341 1.0035-.851 1.1127z" fill="#de8009"/><path d="m36.4218 30.269s-3.4828 4.8427-3.4828 8.2482c0 1.9235 1.5593 3.4828 3.4828 3.4828s3.4828-1.5593 3.4828-3.4828c0-3.4054-3.4828-8.2482-3.4828-8.2482z" fill="url(#linear-gradient-4)"/><path d="m36.4218 31.0651s-1.4312 1.99-1.4312 3.3894c0 .7904.6408 1.4312 1.4312 1.4312s1.4312-.6408 1.4312-1.4312c0-1.3994-1.4312-3.3894-1.4312-3.3894z" fill="url(#linear-gradient-5)" opacity=".5"/></svg>