<svg id="Gradient" viewBox="0 0 48 48" xmlns="http://www.w3.org/2000/svg" xmlns:xlink="http://www.w3.org/1999/xlink"><linearGradient id="linear-gradient" gradientUnits="userSpaceOnUse" x1="24.92" x2="24.92" y1="39.86" y2="6.151"><stop offset="0" stop-color="#ed9b14"/><stop offset="1" stop-color="#f9cd48"/></linearGradient><linearGradient id="linear-gradient-2" x1="11.5" x2="11.5" xlink:href="#linear-gradient" y1="41" y2="32"/><linearGradient id="linear-gradient-3" x1="9" x2="9" xlink:href="#linear-gradient" y1="35" y2="29"/><linearGradient id="linear-gradient-4" x1="16" x2="16" xlink:href="#linear-gradient" y1="42" y2="36"/><path d="m41.56 29.42-6.13-8.65 3.3-10.06c.12-.36.03-.75-.23-1.02-.27-.27-.66-.37-1.01-.25l-10.12 3.16-8.55-6.26c-.3-.22-.7-.25-1.04-.08-.33.16-.55.5-.55.88l-.12 10.59-8.59 6.21c-.31.21-.46.59-.41.96.06.37.32.67.67.79l10.04 3.39 3.24 10.09c.12.36.42.62.79.68.06.01.11.01.17.01.31 0 .61-.14.8-.4l6.32-8.5 10.6.03c.37 0 .72-.2.89-.54.17-.33.14-.73-.07-1.03z" fill="url(#linear-gradient)"/><path d="m15.707 32.293c-.3906-.3906-1.0234-.3906-1.4141 0l-7 7c-.3906.3906-.3906 1.0234 0 1.4141.1953.1953.4512.293.707.293s.5117-.0977.707-.293l7-7c.3906-.3906.3906-1.0234 0-1.4141z" fill="url(#linear-gradient-2)"/><path d="m7.707 34.707 4-4c.3906-.3906.3906-1.0234 0-1.4141s-1.0234-.3906-1.4141 0l-4 4c-.3906.3906-.3906 1.0234 0 1.4141.1953.1953.4512.293.707.293s.5117-.0977.707-.293z" fill="url(#linear-gradient-3)"/><path d="m17.293 36.293-4 4c-.3906.3906-.3906 1.0234 0 1.4141.1953.1953.4512.293.707.293s.5117-.0977.707-.293l4-4c.3906-.3906.3906-1.0234 0-1.4141s-1.0234-.3906-1.4141 0z" fill="url(#linear-gradient-4)"/></svg>