<svg height="512" viewBox="0 0 175 175" width="512" xmlns="http://www.w3.org/2000/svg"><g id="Layer_2" data-name="Layer 2"><g id="Filled"><g id="_37.Smile-Beam" data-name="37.Smile-Beam"><circle id="Background" cx="87.5" cy="87.5" fill="#ffdd67" r="87.5"/><g id="Face" fill="#b26d3c"><path id="Mouth" d="m87.5 140.07a50.6 50.6 0 0 1 -47.83-34.07 6 6 0 1 1 11.33-3.93 38.59 38.59 0 0 0 73 0 6 6 0 1 1 11.33 3.93 50.6 50.6 0 0 1 -47.83 34.07z"/><path d="m116.5 58.77c-11 0-19.89 16.63-19.89 10.28s8.9-22.38 19.89-22.38 19.9 16 19.9 22.38-8.91-10.28-19.9-10.28z"/><path d="m58.5 58.35c-11 0-19.9 16.64-19.9 10.29s8.91-22.38 19.9-22.38 19.89 16 19.89 22.38-8.9-10.29-19.89-10.29z"/></g></g></g></g></svg>