<svg id="Gradient" viewBox="0 0 48 48" xmlns="http://www.w3.org/2000/svg" xmlns:xlink="http://www.w3.org/1999/xlink"><radialGradient id="radial-gradient" cx="23.457" cy="6.462" gradientUnits="userSpaceOnUse" r="30.648"><stop offset=".0056" stop-color="#feeb72"/><stop offset=".3156" stop-color="#fde86f"/><stop offset=".5153" stop-color="#fcdf68"/><stop offset=".6839" stop-color="#fbd05c"/><stop offset=".8352" stop-color="#f9bb4b"/><stop offset=".9737" stop-color="#f6a134"/><stop offset="1" stop-color="#f69b30"/></radialGradient><linearGradient id="linear-gradient" gradientUnits="userSpaceOnUse" x1="14" x2="18" y1="19" y2="19"><stop offset="0" stop-color="#8b3a0e"/><stop offset="1" stop-color="#472315"/></linearGradient><linearGradient id="linear-gradient-2" x1="30" x2="34" xlink:href="#linear-gradient"/><linearGradient id="linear-gradient-3" x1="14.493" x2="33.508" xlink:href="#linear-gradient" y1="29.255" y2="29.255"/><path d="m42 24c0 5.02-2.12 9.85-5.82 13.25-3.33 3.06-7.66 4.75-12.18 4.75s-8.85-1.69-12.18-4.75c-3.7-3.4-5.82-8.23-5.82-13.25 0-9.93 8.08-18 18-18s18 8.07 18 18z" fill="url(#radial-gradient)"/><circle cx="16" cy="19" fill="url(#linear-gradient)" r="2"/><circle cx="32" cy="19" fill="url(#linear-gradient-2)" r="2"/><path d="m24 32c-2.8779 0-6.5352-.439-9.2871-3.8638-.3457-.4307-.2773-1.0601.1533-1.4058.4297-.3462 1.0596-.2773 1.4053.1528 1.7559 2.1846 4.0674 3.1167 7.7285 3.1167s5.9736-.9321 7.7285-3.1167c.3457-.4292.9756-.498 1.4053-.1533.4307.3462.499.9756.1533 1.4062-2.751 3.4248-6.4082 3.8638-9.2871 3.8638z" fill="url(#linear-gradient-3)"/></svg>