<svg id="Gradient" viewBox="0 0 48 48" xmlns="http://www.w3.org/2000/svg" xmlns:xlink="http://www.w3.org/1999/xlink"><linearGradient id="linear-gradient" gradientUnits="userSpaceOnUse" x1="24" x2="24" y1="40.802" y2="6.52"><stop offset="0" stop-color="#ed9b14"/><stop offset="1" stop-color="#f9cd48"/></linearGradient><path d="m34.17 28.3c-.0601.05-.09.13-.08.21l1.49 9.71c.14.87-.23 1.72-.96 2.2-.74.49-1.66.51-2.41.05l-8.09-4.94c-.07-.04-.17-.04-.24 0l-8.09 4.94c-.37.22-.77.33-1.17.33-.43 0-.86-.12-1.24-.38-.73-.48-1.1-1.33-.96-2.19l1.49-9.72c.01-.08-.02-.16-.08-.21l-6.57-5.84c-.64-.58-.9-1.45-.66-2.29.24-.83.92-1.44 1.78-1.58l8.84-1.47c.07-.02.13-.06.17-.13l4.61-9.23c.38-.76 1.15-1.24 2-1.24s1.62.48 2 1.24l4.61 9.23c.04.07.1.11.1801.13l8.83 1.47c.86.14 1.54.75 1.78 1.58.24.84-.02 1.71-.66 2.29l-6.5699 5.84z" fill="url(#linear-gradient)"/></svg>