<?xml version="1.0" encoding="iso-8859-1"?>
<!-- Generator: Adobe Illustrator 19.0.0, SVG Export Plug-In . SVG Version: 6.00 Build 0)  -->
<svg version="1.1" id="Capa_1" xmlns="http://www.w3.org/2000/svg" xmlns:xlink="http://www.w3.org/1999/xlink" x="0px" y="0px"
	 viewBox="0 0 512 512" style="enable-background:new 0 0 512 512;" xml:space="preserve">
<path style="fill:#3E4347;" d="M512,186.005v20.56c0,4.24-3.424,7.712-7.664,7.712c0,0-2.352,13.504-5.776,30.08
	c-3.424,16.544-7.888,36.112-12.08,48.32c0,0-14.736,67.824-114.608,51.664c-47.696-1.76-100.208-63.072-98.576-116.064
	c0.128-5.44-2.912-16.96-17.312-16.624c-14.432-0.336-17.44,11.264-17.264,16.704c1.84,52.032-50.448,114.208-98.576,115.968
	c-99.856,16.144-114.64-51.664-114.64-51.664c-8.272-24.384-17.776-78.4-17.776-78.4C3.424,214.277,0,210.821,0,206.581v-20.56
	c0-3.616,2.528-6.784,6.064-7.552c52-11.216,103.232-12.896,103.232-12.896c33.648-2.272,71.792,5.536,95.408,11.616
	c33.952,8.736,68.688,8.736,102.656,0c23.616-6.08,61.728-13.872,95.408-11.6c0,0,51.184,1.664,103.184,12.896
	C509.472,179.221,512,182.405,512,186.005z"/>
<path style="fill:#6DAFDF;" d="M295.12,222.853c0,0-1.776-19.568,36.752-30.832c0,0,50.4-16.608,96.048-3.552
	c0,0,47.456,10.672,47.456,38.544c0,0-2.192,80.592-37.856,96.176c-29.904,13.072-81.936,14.544-116.304-25.616
	C321.216,297.557,293.344,266.725,295.12,222.853z"/>
<g>
	<path style="fill:#5CA3D9;" d="M379.648,183.765l-78.384,78.32c-1.024-2.832-1.936-5.856-2.768-8.992l68.256-68.256
		C370.848,184.357,375.12,183.941,379.648,183.765z"/>
	<path style="fill:#5CA3D9;" d="M407.984,184.549l-97.552,97.552c-2.224-3.984-4.576-8.56-6.816-13.808l84.832-84.832
		C394.784,183.461,401.36,183.765,407.984,184.549z"/>
</g>
<path style="fill:#6DAFDF;" d="M215.376,222.853c0,0,1.776-19.568-36.752-30.832c0,0-50.4-16.608-96.048-3.552
	c0,0-47.456,10.672-47.456,38.544c0,0,2.192,80.592,37.856,96.176c29.904,13.072,81.936,14.544,116.304-25.616
	C189.28,297.557,217.152,266.725,215.376,222.853z"/>
<g>
	<path style="fill:#5CA3D9;" d="M130.848,183.765l78.384,78.32c1.024-2.832,1.936-5.856,2.768-8.992l-68.256-68.256
		C139.648,184.357,135.376,183.941,130.848,183.765z"/>
	<path style="fill:#5CA3D9;" d="M102.512,184.549l97.552,97.552c2.224-3.984,4.576-8.56,6.816-13.808l-84.832-84.832
		C115.712,183.461,109.136,183.765,102.512,184.549z"/>
</g>
<g>
</g>
<g>
</g>
<g>
</g>
<g>
</g>
<g>
</g>
<g>
</g>
<g>
</g>
<g>
</g>
<g>
</g>
<g>
</g>
<g>
</g>
<g>
</g>
<g>
</g>
<g>
</g>
<g>
</g>
</svg>
