<svg id="Layer_2_00000062910653007835245620000010495678484130834064_" enable-background="new 0 0 512 512" height="512" viewBox="0 0 512 512" width="512" xmlns="http://www.w3.org/2000/svg"><g id="Icon"><g id="UserTag"><path d="m370.7 465.8c-3.4.9-6.9 1.4-10.6 1.4h-312.7c-27.1 0-46.4-26.4-38.1-52.2l32.9-102.8c10.6-33 46.7-50.1 78.9-37.6 21.4 8.3 48.9 14.8 82.6 14.8 19.9 0 37.6-2.3 53.3-5.9v52c0 10.7 4.2 20.7 11.7 28.3z" fill="#1e88e5"/><g fill="#90caf9"><circle cx="203.8" cy="147.9" r="103.1"/><path d="m296.2 245.5-13.3 13.3c-3.8 3.8-5.9 8.8-5.9 14.1v62.6c0 5.3 2.1 10.4 5.9 14.1l111.6 111.6c7.8 7.8 20.5 7.8 28.3 0l75.9-75.9c7.8-7.8 7.8-20.5 0-28.3l-111.6-111.5c-3.8-3.8-8.8-5.9-14.1-5.9h-62.6c-5.3 0-10.4 2.1-14.2 5.9zm61.2 74.4c-7.8 7.8-20.4 7.8-28.2 0s-7.8-20.4 0-28.2 20.4-7.8 28.2 0 7.8 20.4 0 28.2z"/></g></g></g></svg>