<svg id="Gradient" viewBox="0 0 48 48" xmlns="http://www.w3.org/2000/svg" xmlns:xlink="http://www.w3.org/1999/xlink"><radialGradient id="radial-gradient" cx="24.072" cy="13.359" gradientUnits="userSpaceOnUse" r="25.433"><stop offset=".0056" stop-color="#feeb72"/><stop offset=".3156" stop-color="#fde86f"/><stop offset=".5153" stop-color="#fcdf68"/><stop offset=".6839" stop-color="#fbd05c"/><stop offset=".8352" stop-color="#f9bb4b"/><stop offset=".9737" stop-color="#f6a134"/><stop offset="1" stop-color="#f69b30"/></radialGradient><linearGradient id="linear-gradient" gradientUnits="userSpaceOnUse" x1="24" x2="24" y1="37.5" y2="24"><stop offset="0" stop-color="#8b3a0e"/><stop offset="1" stop-color="#472315"/></linearGradient><linearGradient id="linear-gradient-2" gradientUnits="userSpaceOnUse" x1="16.688" x2="16.688" y1="14.934" y2="21.925"><stop offset=".0056" stop-color="#3c466e"/><stop offset="1" stop-color="#252949"/></linearGradient><linearGradient id="linear-gradient-3" x1="31.313" x2="31.313" xlink:href="#linear-gradient-2" y1="15.066" y2="21.334"/><path d="m42 24c0 9.9405-8.0594 18-17.9999 18s-18.0001-8.0595-18.0001-18 8.0595-18 18-18 17.9999 8.0595 17.9999 18" fill="url(#radial-gradient)"/><path d="m18.7012 30.4957c-.3623 4.1558 1.6335 7.0043 5.2988 7.0043s5.661-2.8485 5.2988-7.0043c-.351-4.149-2.5043-6.4957-5.2988-6.4957s-4.9478 2.3468-5.2988 6.4957z" fill="url(#linear-gradient)"/><path d="m13.875 18.375c0-1.863 1.2577-3.3751 2.8124-3.3751s2.8126 1.5121 2.8126 3.3751-1.2578 3.375-2.8126 3.375-2.8124-1.512-2.8124-3.375z" fill="url(#linear-gradient-2)"/><path d="m28.5 18.375c0-1.863 1.2578-3.3751 2.8126-3.3751s2.8125 1.5121 2.8125 3.3751-1.2578 3.375-2.8125 3.375-2.8126-1.512-2.8126-3.375z" fill="url(#linear-gradient-3)"/><g fill="#de8009"><path d="m26.5537 14.0525c2.469-3.4886 8.1342-2.9169 9.5881 1.1821.2143.6197-.6743.9914-.9648.4059-.6075-1.3072-1.9809-2.3005-3.4481-2.3081-1.3843-.066-2.6988.6435-3.3762 1.8051-.7433 1.1674-2.4852.12-1.7989-1.0849z"/><path d="m21.4196 14.0525c-2.4691-3.4886-8.1342-2.9169-9.5881 1.1821-.2143.6198.6742.9914.9648.4059.6076-1.3072 1.9809-2.3005 3.4481-2.3081 1.3842-.066 2.6988.6435 3.3762 1.8051.7433 1.1674 2.4852.12 1.7989-1.0849z"/></g></svg>