<svg id="&#xB808;&#xC774;&#xC5B4;_1" enable-background="new 0 0 256 256" viewBox="0 0 256 256" xmlns="http://www.w3.org/2000/svg"><circle cx="128" cy="128" fill="#ffd664" r="128"/><path d="m256 128c0-14.4-2.4-28.3-6.8-41.2-7.8 60.8-43.8 172.9-205.1 137.9 22.5 19.5 51.8 31.3 83.9 31.3 70.7 0 128-57.3 128-128z" opacity=".06"/><path d="m47.5 63.4c-2 0-4.1-.7-5.8-2.1-3.8-3.2-4.3-8.9-1.1-12.7 22.1-26.2 48.1-31.1 49.2-31.3 4.9-.9 9.6 2.4 10.4 7.3.9 4.9-2.4 9.5-7.2 10.4-.5.1-21.1 4.3-38.7 25.1-1.7 2.2-4.3 3.3-6.8 3.3z" fill="#fff" opacity=".35"/><circle cx="175.8" cy="102.7" fill="#f7f7f7" r="39.6"/><circle cx="166.3" cy="102.7" fill="#232323" r="21.6"/><circle cx="80.2" cy="102.7" fill="#f7f7f7" r="39.6"/><circle cx="89.7" cy="102.7" fill="#232323" r="21.6"/><g fill="#191919"><path d="m154.4 186.8c.9 18.2-11.1 33-26.4 33s-27.4-14.8-26.4-33c1-18.7 11.1-33 26.4-33s25.4 14.1 26.4 33z"/><path d="m44.3 59.7c-2.1 0-4.2-.9-5.6-2.7-2.5-3.1-2-7.7 1.1-10.2 26.8-21.7 60.4-18.1 61.9-18 4 .5 6.8 4 6.4 8-.5 4-4 6.8-8 6.4-.4 0-29.2-2.9-51.1 14.8-1.4 1.2-3.1 1.7-4.7 1.7z"/><path d="m211.7 59.7c-1.6 0-3.2-.5-4.6-1.6-22.1-17.9-50.8-14.9-51.1-14.8-4 .5-7.6-2.4-8-6.4-.5-4 2.4-7.6 6.4-8 1.4-.2 35-3.7 61.9 18 3.1 2.5 3.6 7.1 1.1 10.2-1.5 1.7-3.6 2.6-5.7 2.6z"/></g></svg>